G04 Edge.Cuts*
%FSLAX46Y46*%
%MOMM*%
%IPPOS*%
%LPD*%
%ADD10C,0.400*%
%ADD11C,0.600*%
%ADD12C,0.800*%
%ADD13C,1.000*%
%ADD14C,1.200*%
%ADD15C,1.800*%
%ADD16C,2.200*%
%ADD17C,2.400*%
%ADD18C,4.000*%
%ADD19C,0.180*%
G01*
D19*
X0004582073Y0000024462D02*
X0004334609Y0000054983D01*
X0004088941Y0000097611D01*
X0003845661Y0000152241D01*
X0003605354Y0000218743D01*
X0003368600Y0000296956D01*
X0003135968Y0000386692D01*
X0002908020Y0000487734D01*
X0002685305Y0000599840D01*
X0002468358Y0000722739D01*
X0002257703Y0000856134D01*
X0002053848Y0000999706D01*
X0001857282Y0001153107D01*
X0001668481Y0001315968D01*
X0001487898Y0001487898D01*
X0001315968Y0001668481D01*
X0001153107Y0001857282D01*
X0000999706Y0002053848D01*
X0000856134Y0002257703D01*
X0000722739Y0002468358D01*
X0000599840Y0002685305D01*
X0000487734Y0002908020D01*
X0000386692Y0003135968D01*
X0000296956Y0003368600D01*
X0000218743Y0003605354D01*
X0000152241Y0003845661D01*
X0000097611Y0004088941D01*
X0000054983Y0004334609D01*
X0000024462Y0004582073D01*
X0000006119Y0004830736D01*
X0000000000Y0005080000D01*
X0000000000Y0048260000D01*
X0000006119Y0048509264D01*
X0000024462Y0048757927D01*
X0000054983Y0049005391D01*
X0000097611Y0049251059D01*
X0000152241Y0049494339D01*
X0000218743Y0049734646D01*
X0000296956Y0049971400D01*
X0000386692Y0050204032D01*
X0000487734Y0050431980D01*
X0000599840Y0050654695D01*
X0000722739Y0050871642D01*
X0000856134Y0051082297D01*
X0000999706Y0051286152D01*
X0001153107Y0051482718D01*
X0001315968Y0051671519D01*
X0001487898Y0051852102D01*
X0001668481Y0052024032D01*
X0001857282Y0052186893D01*
X0002053848Y0052340294D01*
X0002257703Y0052483866D01*
X0002468358Y0052617261D01*
X0002685305Y0052740160D01*
X0002908020Y0052852266D01*
X0003135968Y0052953308D01*
X0003368600Y0053043044D01*
X0003605354Y0053121257D01*
X0003845661Y0053187759D01*
X0004088941Y0053242389D01*
X0004334609Y0053285017D01*
X0004582073Y0053315538D01*
X0004830736Y0053333881D01*
X0005080000Y0053340000D01*
X0081280000Y0053340000D01*
X0081529264Y0053333881D01*
X0081777927Y0053315538D01*
X0082025391Y0053285017D01*
X0082271059Y0053242389D01*
X0082514339Y0053187759D01*
X0082754646Y0053121257D01*
X0082991400Y0053043044D01*
X0083224032Y0052953308D01*
X0083451980Y0052852266D01*
X0083674695Y0052740160D01*
X0083891642Y0052617261D01*
X0084102297Y0052483866D01*
X0084306152Y0052340294D01*
X0084502718Y0052186893D01*
X0084691519Y0052024032D01*
X0084872102Y0051852102D01*
X0085044032Y0051671519D01*
X0085206893Y0051482718D01*
X0085360294Y0051286152D01*
X0085503866Y0051082297D01*
X0085637261Y0050871642D01*
X0085760160Y0050654695D01*
X0085872266Y0050431980D01*
X0085973308Y0050204032D01*
X0086063044Y0049971400D01*
X0086141257Y0049734646D01*
X0086207759Y0049494339D01*
X0086262389Y0049251059D01*
X0086305017Y0049005391D01*
X0086335538Y0048757927D01*
X0086353881Y0048509264D01*
X0086360000Y0048260000D01*
X0086360000Y0005080000D01*
X0086353881Y0004830736D01*
X0086335538Y0004582073D01*
X0086305017Y0004334609D01*
X0086262389Y0004088941D01*
X0086207759Y0003845661D01*
X0086141257Y0003605354D01*
X0086063044Y0003368600D01*
X0085973308Y0003135968D01*
X0085872266Y0002908020D01*
X0085760160Y0002685305D01*
X0085637261Y0002468358D01*
X0085503866Y0002257703D01*
X0085360294Y0002053848D01*
X0085206893Y0001857282D01*
X0085044032Y0001668481D01*
X0084872102Y0001487898D01*
X0084691519Y0001315968D01*
X0084502718Y0001153107D01*
X0084306152Y0000999706D01*
X0084102297Y0000856134D01*
X0083891642Y0000722739D01*
X0083674695Y0000599840D01*
X0083451980Y0000487734D01*
X0083224032Y0000386692D01*
X0082991400Y0000296956D01*
X0082754646Y0000218743D01*
X0082514339Y0000152241D01*
X0082271059Y0000097611D01*
X0082025391Y0000054983D01*
X0081777927Y0000024462D01*
X0081529264Y0000006119D01*
X0081280000Y0000000000D01*
X0005080000Y0000000000D01*
X0004830736Y0000006119D01*
X0004582073Y0000024462D01*
M02*
