G04 B.Silkscreen*
%FSLAX46Y46*%
%MOMM*%
%IPPOS*%
%LPD*%
%ADD10C,0.400*%
%ADD11C,0.600*%
%ADD12C,0.800*%
%ADD13C,1.000*%
%ADD14C,1.200*%
%ADD15C,1.800*%
%ADD16C,2.200*%
%ADD17C,2.400*%
%ADD18C,4.000*%
%ADD19C,0.180*%
G01*
G36*
X0036675953Y0050379340D02*
X0036763545Y0050344113D01*
X0036827195Y0050289902D01*
X0036866113Y0050217709D01*
X0036879086Y0050128113D01*
X0036851031Y0049999283D01*
X0036766867Y0049905574D01*
X0036629178Y0049848463D01*
X0036440125Y0049829426D01*
X0036364135Y0049832484D01*
X0036288039Y0049841660D01*
X0036212312Y0049856953D01*
X0036137430Y0049878363D01*
X0036137430Y0050074113D01*
X0036208410Y0050042842D01*
X0036278758Y0050020324D01*
X0036348420Y0050006719D01*
X0036416922Y0050002184D01*
X0036505990Y0050010885D01*
X0036571539Y0050036988D01*
X0036611881Y0050079598D01*
X0036625328Y0050137395D01*
X0036611564Y0050196510D01*
X0036570273Y0050239277D01*
X0036502088Y0050265223D01*
X0036407641Y0050273871D01*
X0036306180Y0050273871D01*
X0036306180Y0050437348D01*
X0036412914Y0050437348D01*
X0036496393Y0050444836D01*
X0036555297Y0050467301D01*
X0036590418Y0050505111D01*
X0036602125Y0050558637D01*
X0036590734Y0050608787D01*
X0036556562Y0050646176D01*
X0036501771Y0050669432D01*
X0036428102Y0050677184D01*
X0036366561Y0050673703D01*
X0036304281Y0050663262D01*
X0036241791Y0050646229D01*
X0036179617Y0050622551D01*
X0036179617Y0050808387D01*
X0036254395Y0050826844D01*
X0036328539Y0050840027D01*
X0036401734Y0050847938D01*
X0036473664Y0050850574D01*
X0036641254Y0050834807D01*
X0036760539Y0050787504D01*
X0036832047Y0050708719D01*
X0036855883Y0050598082D01*
X0036844492Y0050519613D01*
X0036810320Y0050456754D01*
X0036754053Y0050409873D01*
X0036675953Y0050379340D01*
X0036675953Y0050379340D01*
G37*
G36*
X0037124195Y0050103645D02*
X0037361500Y0050103645D01*
X0037361500Y0049848621D01*
X0037124195Y0049848621D01*
X0037124195Y0050103645D01*
X0037124195Y0050103645D01*
G37*
G36*
X0037589523Y0050832855D02*
X0038331180Y0050832855D01*
X0038331180Y0050689840D01*
X0037947484Y0049848621D01*
X0037700266Y0049848621D01*
X0038063500Y0050646176D01*
X0037589523Y0050646176D01*
X0037589523Y0050832855D01*
X0037589523Y0050832855D01*
G37*
G36*
X0038445086Y0050832855D02*
X0038700320Y0050832855D01*
X0038961250Y0050106387D01*
X0039221758Y0050832855D01*
X0039476781Y0050832855D01*
X0039112281Y0049848621D01*
X0038809586Y0049848621D01*
X0038445086Y0050832855D01*
X0038445086Y0050832855D01*
G37*
G36*
X0040111492Y0050023910D02*
X0040335719Y0050023910D01*
X0040335719Y0050660098D01*
X0040105586Y0050612637D01*
X0040105586Y0050785395D01*
X0040334242Y0050832855D01*
X0040575555Y0050832855D01*
X0040575555Y0050023910D01*
X0040799781Y0050023910D01*
X0040799781Y0049848621D01*
X0040111492Y0049848621D01*
X0040111492Y0050023910D01*
X0040111492Y0050023910D01*
G37*
G36*
X0041701328Y0050801848D02*
X0041701328Y0050593441D01*
X0041621277Y0050625240D01*
X0041543125Y0050648074D01*
X0041468242Y0050661996D01*
X0041397578Y0050666637D01*
X0041318477Y0050660361D01*
X0041263000Y0050641535D01*
X0041230410Y0050609684D01*
X0041219547Y0050563910D01*
X0041226877Y0050528631D01*
X0041248867Y0050502105D01*
X0041290158Y0050481697D01*
X0041355391Y0050464348D01*
X0041463391Y0050442621D01*
X0041603770Y0050400961D01*
X0041696687Y0050342215D01*
X0041748736Y0050260898D01*
X0041766086Y0050151105D01*
X0041741934Y0050009250D01*
X0041669477Y0049908949D01*
X0041547396Y0049849307D01*
X0041374375Y0049829426D01*
X0041280719Y0049833908D01*
X0041186641Y0049847355D01*
X0041092352Y0049869398D01*
X0040998062Y0049900090D01*
X0040998062Y0050114191D01*
X0041090770Y0050070316D01*
X0041180312Y0050038676D01*
X0041266744Y0050019691D01*
X0041350117Y0050013363D01*
X0041423471Y0050020271D01*
X0041477312Y0050040996D01*
X0041510377Y0050074746D01*
X0041521398Y0050120309D01*
X0041513910Y0050161072D01*
X0041491445Y0050191395D01*
X0041446568Y0050215178D01*
X0041371844Y0050236324D01*
X0041273547Y0050258051D01*
X0041145719Y0050299078D01*
X0041057547Y0050358879D01*
X0041006447Y0050440090D01*
X0040989414Y0050545348D01*
X0041013145Y0050675391D01*
X0041084336Y0050771473D01*
X0041200035Y0050830799D01*
X0041357289Y0050850574D01*
X0041439607Y0050847516D01*
X0041524141Y0050838340D01*
X0041611258Y0050823100D01*
X0041701328Y0050801848D01*
X0041701328Y0050801848D01*
G37*
G36*
X0042458805Y0050832855D02*
X0042712562Y0050832855D01*
X0042712562Y0050040363D01*
X0043158062Y0050040363D01*
X0043158062Y0049848621D01*
X0042458805Y0049848621D01*
X0042458805Y0050832855D01*
X0042458805Y0050832855D01*
G37*
G36*
X0043319008Y0050832855D02*
X0043572766Y0050832855D01*
X0043572766Y0049848621D01*
X0043319008Y0049848621D01*
X0043319008Y0050832855D01*
X0043319008Y0050832855D01*
G37*
G36*
X0043821250Y0050832855D02*
X0044242281Y0050832855D01*
X0044408342Y0050811973D01*
X0044530633Y0050749324D01*
X0044606096Y0050648285D01*
X0044631250Y0050511809D01*
X0044606096Y0050374699D01*
X0044530633Y0050273449D01*
X0044408342Y0050210959D01*
X0044242281Y0050190129D01*
X0044075008Y0050190129D01*
X0044075008Y0049848621D01*
X0043821250Y0049848621D01*
X0043821250Y0050832855D01*
X0043821250Y0050832855D01*
G37*
G36*
X0044075008Y0050648918D02*
X0044075008Y0050374066D01*
X0044215281Y0050374066D01*
X0044280725Y0050383031D01*
X0044329398Y0050409926D01*
X0044359615Y0050453326D01*
X0044369688Y0050511809D01*
X0044359615Y0050570080D01*
X0044329398Y0050613270D01*
X0044280725Y0050640006D01*
X0044215281Y0050648918D01*
X0044075008Y0050648918D01*
X0044075008Y0050648918D01*
G37*
G36*
X0045260266Y0050666637D02*
X0045157275Y0050645227D01*
X0045080336Y0050580996D01*
X0045032400Y0050477848D01*
X0045016422Y0050339684D01*
X0045032400Y0050202100D01*
X0045080336Y0050099004D01*
X0045157275Y0050034773D01*
X0045260266Y0050013363D01*
X0045363730Y0050034773D01*
X0045440828Y0050099004D01*
X0045488764Y0050202100D01*
X0045504742Y0050339684D01*
X0045488764Y0050477848D01*
X0045440828Y0050580996D01*
X0045363730Y0050645227D01*
X0045260266Y0050666637D01*
X0045260266Y0050666637D01*
G37*
G36*
X0045260266Y0050850574D02*
X0045471836Y0050816613D01*
X0045631938Y0050714730D01*
X0045732871Y0050553152D01*
X0045766516Y0050339684D01*
X0045732871Y0050126795D01*
X0045631938Y0049965270D01*
X0045471836Y0049863387D01*
X0045260266Y0049829426D01*
X0045049064Y0049863387D01*
X0044888805Y0049965270D01*
X0044787713Y0050126795D01*
X0044754016Y0050339684D01*
X0044787713Y0050553152D01*
X0044888805Y0050714730D01*
X0045049064Y0050816613D01*
X0045260266Y0050850574D01*
X0045260266Y0050850574D01*
G37*
G36*
X0046877945Y0050666637D02*
X0046774955Y0050645227D01*
X0046698016Y0050580996D01*
X0046650080Y0050477848D01*
X0046634102Y0050339684D01*
X0046650080Y0050202100D01*
X0046698016Y0050099004D01*
X0046774955Y0050034773D01*
X0046877945Y0050013363D01*
X0046981410Y0050034773D01*
X0047058508Y0050099004D01*
X0047106443Y0050202100D01*
X0047122422Y0050339684D01*
X0047106443Y0050477848D01*
X0047058508Y0050580996D01*
X0046981410Y0050645227D01*
X0046877945Y0050666637D01*
X0046877945Y0050666637D01*
G37*
G36*
X0046877945Y0050850574D02*
X0047089516Y0050816613D01*
X0047249617Y0050714730D01*
X0047350551Y0050553152D01*
X0047384195Y0050339684D01*
X0047350551Y0050126795D01*
X0047249617Y0049965270D01*
X0047089516Y0049863387D01*
X0046877945Y0049829426D01*
X0046666744Y0049863387D01*
X0046506484Y0049965270D01*
X0046405393Y0050126795D01*
X0046371695Y0050339684D01*
X0046405393Y0050553152D01*
X0046506484Y0050714730D01*
X0046666744Y0050816613D01*
X0046877945Y0050850574D01*
X0046877945Y0050850574D01*
G37*
G36*
X0047576148Y0050832855D02*
X0047859438Y0050832855D01*
X0048217398Y0050157855D01*
X0048217398Y0050832855D01*
X0048458078Y0050832855D01*
X0048458078Y0049848621D01*
X0048174578Y0049848621D01*
X0047816617Y0050523621D01*
X0047816617Y0049848621D01*
X0047576148Y0049848621D01*
X0047576148Y0050832855D01*
X0047576148Y0050832855D01*
G37*
G36*
X0048705930Y0050832855D02*
X0048959688Y0050832855D01*
X0048959688Y0050040363D01*
X0049405188Y0050040363D01*
X0049405188Y0049848621D01*
X0048705930Y0049848621D01*
X0048705930Y0050832855D01*
X0048705930Y0050832855D01*
G37*
G36*
X0049218508Y0050832855D02*
X0049496102Y0050832855D01*
X0049720328Y0050482066D01*
X0049944344Y0050832855D01*
X0050222570Y0050832855D01*
X0049847523Y0050263324D01*
X0049847523Y0049848621D01*
X0049593766Y0049848621D01*
X0049593766Y0050263324D01*
X0049218508Y0050832855D01*
X0049218508Y0050832855D01*
G37*
G36*
X0033737188Y0003474031D02*
X0034080250Y0003474031D01*
X0034215559Y0003457016D01*
X0034315203Y0003405969D01*
X0034376691Y0003323641D01*
X0034397188Y0003212438D01*
X0034376691Y0003100719D01*
X0034315203Y0003018219D01*
X0034215559Y0002967301D01*
X0034080250Y0002950328D01*
X0033943953Y0002950328D01*
X0033943953Y0002672062D01*
X0033737188Y0002672062D01*
X0033737188Y0003474031D01*
X0033737188Y0003474031D01*
G37*
G36*
X0033943953Y0003324156D02*
X0033943953Y0003100203D01*
X0034058250Y0003100203D01*
X0034111574Y0003107508D01*
X0034151234Y0003129422D01*
X0034175855Y0003164785D01*
X0034184062Y0003212438D01*
X0034175855Y0003259918D01*
X0034151234Y0003295109D01*
X0034111574Y0003316895D01*
X0034058250Y0003324156D01*
X0033943953Y0003324156D01*
X0033943953Y0003324156D01*
G37*
G36*
X0034837188Y0003118422D02*
X0034892961Y0003124438D01*
X0034930344Y0003142484D01*
X0034951484Y0003174496D01*
X0034958531Y0003222062D01*
X0034951484Y0003269070D01*
X0034930344Y0003300438D01*
X0034892961Y0003318227D01*
X0034837188Y0003324156D01*
X0034750219Y0003324156D01*
X0034750219Y0003118422D01*
X0034837188Y0003118422D01*
X0034837188Y0003118422D01*
G37*
G36*
X0034750219Y0002975594D02*
X0034750219Y0002672062D01*
X0034543453Y0002672062D01*
X0034543453Y0003474031D01*
X0034859188Y0003474031D01*
X0034996473Y0003460711D01*
X0035091391Y0003420750D01*
X0035146820Y0003352172D01*
X0035165297Y0003252656D01*
X0035155672Y0003180340D01*
X0035126797Y0003122203D01*
X0035078715Y0003077859D01*
X0035011125Y0003046922D01*
X0035051344Y0003031152D01*
X0035087094Y0003003094D01*
X0035120953Y0002960254D01*
X0035155156Y0002899797D01*
X0035267391Y0002672062D01*
X0035047219Y0002672062D01*
X0034949422Y0002871266D01*
X0034919645Y0002921883D01*
X0034889438Y0002953422D01*
X0034854117Y0002970051D01*
X0034808656Y0002975594D01*
X0034750219Y0002975594D01*
X0034750219Y0002975594D01*
G37*
G36*
X0035756719Y0003338594D02*
X0035672801Y0003321148D01*
X0035610109Y0003268812D01*
X0035571051Y0003184766D01*
X0035558031Y0003072188D01*
X0035571051Y0002960082D01*
X0035610109Y0002876078D01*
X0035672801Y0002823742D01*
X0035756719Y0002806297D01*
X0035841023Y0002823742D01*
X0035903844Y0002876078D01*
X0035942902Y0002960082D01*
X0035955922Y0003072188D01*
X0035942902Y0003184766D01*
X0035903844Y0003268812D01*
X0035841023Y0003321148D01*
X0035756719Y0003338594D01*
X0035756719Y0003338594D01*
G37*
G36*
X0035756719Y0003488469D02*
X0035929109Y0003460797D01*
X0036059562Y0003377781D01*
X0036141805Y0003246125D01*
X0036169219Y0003072188D01*
X0036141805Y0002898723D01*
X0036059562Y0002767109D01*
X0035929109Y0002684094D01*
X0035756719Y0002656422D01*
X0035584629Y0002684094D01*
X0035454047Y0002767109D01*
X0035371676Y0002898723D01*
X0035344219Y0003072188D01*
X0035371676Y0003246125D01*
X0035454047Y0003377781D01*
X0035584629Y0003460797D01*
X0035756719Y0003488469D01*
X0035756719Y0003488469D01*
G37*
G36*
X0036229891Y0003474031D02*
X0036968953Y0003474031D01*
X0036968953Y0003317625D01*
X0036703062Y0003317625D01*
X0036703062Y0002672062D01*
X0036496297Y0002672062D01*
X0036496297Y0003317625D01*
X0036229891Y0003317625D01*
X0036229891Y0003474031D01*
X0036229891Y0003474031D01*
G37*
G36*
X0037076031Y0003474031D02*
X0037633938Y0003474031D01*
X0037633938Y0003317625D01*
X0037282797Y0003317625D01*
X0037282797Y0003168438D01*
X0037613141Y0003168438D01*
X0037613141Y0003012031D01*
X0037282797Y0003012031D01*
X0037282797Y0002828297D01*
X0037645797Y0002828297D01*
X0037645797Y0002672062D01*
X0037076031Y0002672062D01*
X0037076031Y0003474031D01*
X0037076031Y0003474031D01*
G37*
G36*
X0038463406Y0002716062D02*
X0038405184Y0002690152D01*
X0038344641Y0002671547D01*
X0038281562Y0002660203D01*
X0038215734Y0002656422D01*
X0038036168Y0002684438D01*
X0037898281Y0002768484D01*
X0037810496Y0002900441D01*
X0037781234Y0003072188D01*
X0037810496Y0003244406D01*
X0037898281Y0003376406D01*
X0038036168Y0003460453D01*
X0038215734Y0003488469D01*
X0038281562Y0003484688D01*
X0038344641Y0003473344D01*
X0038405184Y0003454738D01*
X0038463406Y0003428828D01*
X0038463406Y0003262969D01*
X0038406258Y0003296914D01*
X0038349969Y0003320375D01*
X0038292648Y0003334039D01*
X0038232406Y0003338594D01*
X0038133535Y0003320848D01*
X0038058297Y0003267609D01*
X0038010859Y0003183348D01*
X0037995047Y0003072188D01*
X0038010859Y0002961371D01*
X0038058297Y0002877109D01*
X0038133535Y0002824000D01*
X0038232406Y0002806297D01*
X0038292648Y0002810852D01*
X0038349969Y0002824516D01*
X0038406258Y0002848105D01*
X0038463406Y0002882094D01*
X0038463406Y0002716062D01*
X0038463406Y0002716062D01*
G37*
G36*
X0038539031Y0003474031D02*
X0039278094Y0003474031D01*
X0039278094Y0003317625D01*
X0039012203Y0003317625D01*
X0039012203Y0002672062D01*
X0038805438Y0002672062D01*
X0038805438Y0003317625D01*
X0038539031Y0003317625D01*
X0038539031Y0003474031D01*
X0038539031Y0003474031D01*
G37*
G36*
X0039385172Y0003474031D02*
X0039943078Y0003474031D01*
X0039943078Y0003317625D01*
X0039591938Y0003317625D01*
X0039591938Y0003168438D01*
X0039922281Y0003168438D01*
X0039922281Y0003012031D01*
X0039591938Y0003012031D01*
X0039591938Y0002828297D01*
X0039954938Y0002828297D01*
X0039954938Y0002672062D01*
X0039385172Y0002672062D01*
X0039385172Y0003474031D01*
X0039385172Y0003474031D01*
G37*
G36*
X0040343375Y0003317625D02*
X0040343375Y0002828297D01*
X0040417453Y0002828297D01*
X0040529172Y0002844023D01*
X0040610984Y0002891203D01*
X0040661258Y0002968332D01*
X0040678016Y0003073906D01*
X0040661344Y0003178793D01*
X0040611328Y0003255234D01*
X0040529602Y0003302027D01*
X0040417453Y0003317625D01*
X0040343375Y0003317625D01*
X0040343375Y0003317625D01*
G37*
G36*
X0040136609Y0003474031D02*
X0040354547Y0003474031D01*
X0040513918Y0003467500D01*
X0040626625Y0003447906D01*
X0040709641Y0003412844D01*
X0040779938Y0003359562D01*
X0040829051Y0003301082D01*
X0040863641Y0003234266D01*
X0040884266Y0003158770D01*
X0040891141Y0003073906D01*
X0040884266Y0002987926D01*
X0040863641Y0002911828D01*
X0040829051Y0002844926D01*
X0040779938Y0002786531D01*
X0040709039Y0002733207D01*
X0040625250Y0002698016D01*
X0040512457Y0002678551D01*
X0040354547Y0002672062D01*
X0040136609Y0002672062D01*
X0040136609Y0003474031D01*
X0040136609Y0003474031D01*
G37*
G36*
X0041336984Y0003474031D02*
X0042076047Y0003474031D01*
X0042076047Y0003317625D01*
X0041810156Y0003317625D01*
X0041810156Y0002672062D01*
X0041603391Y0002672062D01*
X0041603391Y0003317625D01*
X0041336984Y0003317625D01*
X0041336984Y0003474031D01*
X0041336984Y0003474031D01*
G37*
G36*
X0042183125Y0003474031D02*
X0042526188Y0003474031D01*
X0042661496Y0003457016D01*
X0042761141Y0003405969D01*
X0042822629Y0003323641D01*
X0042843125Y0003212438D01*
X0042822629Y0003100719D01*
X0042761141Y0003018219D01*
X0042661496Y0002967301D01*
X0042526188Y0002950328D01*
X0042389891Y0002950328D01*
X0042389891Y0002672062D01*
X0042183125Y0002672062D01*
X0042183125Y0003474031D01*
X0042183125Y0003474031D01*
G37*
G36*
X0042389891Y0003324156D02*
X0042389891Y0003100203D01*
X0042504188Y0003100203D01*
X0042557512Y0003107508D01*
X0042597172Y0003129422D01*
X0042621793Y0003164785D01*
X0042630000Y0003212438D01*
X0042621793Y0003259918D01*
X0042597172Y0003295109D01*
X0042557512Y0003316895D01*
X0042504188Y0003324156D01*
X0042389891Y0003324156D01*
X0042389891Y0003324156D01*
G37*
G36*
X0043293266Y0003303703D02*
X0043066734Y0002968031D01*
X0043293266Y0002968031D01*
X0043293266Y0003303703D01*
X0043293266Y0003303703D01*
G37*
G36*
X0043258891Y0003474031D02*
X0043488859Y0003474031D01*
X0043488859Y0002968031D01*
X0043603156Y0002968031D01*
X0043603156Y0002818156D01*
X0043488859Y0002818156D01*
X0043488859Y0002672062D01*
X0043293266Y0002672062D01*
X0043293266Y0002818156D01*
X0042937828Y0002818156D01*
X0042937828Y0002995359D01*
X0043258891Y0003474031D01*
X0043258891Y0003474031D01*
G37*
G36*
X0044159688Y0003073906D02*
X0044152641Y0003202039D01*
X0044131500Y0003285656D01*
X0044093688Y0003331805D01*
X0044036625Y0003347188D01*
X0043979605Y0003331805D01*
X0043941578Y0003285656D01*
X0043920180Y0003202039D01*
X0043913047Y0003073906D01*
X0043920180Y0002944227D01*
X0043941578Y0002859406D01*
X0043979605Y0002812742D01*
X0044036625Y0002797188D01*
X0044093344Y0002812742D01*
X0044131156Y0002859406D01*
X0044152555Y0002944227D01*
X0044159688Y0003073906D01*
X0044159688Y0003073906D01*
G37*
G36*
X0044366453Y0003072188D02*
X0044344969Y0002895715D01*
X0044280516Y0002764703D01*
X0044176574Y0002683492D01*
X0044036625Y0002656422D01*
X0043896289Y0002683492D01*
X0043792219Y0002764703D01*
X0043727766Y0002895715D01*
X0043706281Y0003072188D01*
X0043727766Y0003249133D01*
X0043792219Y0003380188D01*
X0043896289Y0003461398D01*
X0044036625Y0003488469D01*
X0044176574Y0003461398D01*
X0044280516Y0003380188D01*
X0044344969Y0003249133D01*
X0044366453Y0003072188D01*
X0044366453Y0003072188D01*
G37*
G36*
X0044535578Y0003474031D02*
X0045049656Y0003474031D01*
X0045049656Y0003321922D01*
X0044700578Y0003321922D01*
X0044700578Y0003197828D01*
X0044724211Y0003203586D01*
X0044748016Y0003207797D01*
X0044772379Y0003210504D01*
X0044797688Y0003211406D01*
X0044928055Y0003193059D01*
X0045025938Y0003138016D01*
X0045087168Y0003050230D01*
X0045107578Y0002933656D01*
X0045085363Y0002817770D01*
X0045018719Y0002729984D01*
X0044912586Y0002674812D01*
X0044771906Y0002656422D01*
X0044704016Y0002659730D01*
X0044636813Y0002669656D01*
X0044570168Y0002686285D01*
X0044503953Y0002709703D01*
X0044503953Y0002872469D01*
X0044567762Y0002839512D01*
X0044628219Y0002815922D01*
X0044685367Y0002801871D01*
X0044739250Y0002797188D01*
X0044806367Y0002806383D01*
X0044857500Y0002833969D01*
X0044889984Y0002877281D01*
X0044900812Y0002933656D01*
X0044889984Y0002990332D01*
X0044857500Y0003033516D01*
X0044806367Y0003060973D01*
X0044739250Y0003070125D01*
X0044693102Y0003067203D01*
X0044644031Y0003058438D01*
X0044591738Y0003043785D01*
X0044535578Y0003022859D01*
X0044535578Y0003474031D01*
X0044535578Y0003474031D01*
G37*
G36*
X0045582469Y0003067891D02*
X0045534945Y0003059082D01*
X0045501000Y0003032656D01*
X0045480633Y0002988742D01*
X0045473844Y0002927125D01*
X0045480633Y0002865594D01*
X0045501000Y0002821594D01*
X0045534945Y0002795297D01*
X0045582469Y0002786531D01*
X0045630250Y0002795297D01*
X0045664281Y0002821594D01*
X0045684648Y0002865594D01*
X0045691438Y0002927125D01*
X0045684648Y0002988742D01*
X0045664281Y0003032656D01*
X0045630250Y0003059082D01*
X0045582469Y0003067891D01*
X0045582469Y0003067891D01*
G37*
G36*
X0045838047Y0003453062D02*
X0045838047Y0003304734D01*
X0045788461Y0003325789D01*
X0045741797Y0003340484D01*
X0045697281Y0003349121D01*
X0045653797Y0003352000D01*
X0045571684Y0003339152D01*
X0045509938Y0003300609D01*
X0045469117Y0003236973D01*
X0045449781Y0003148500D01*
X0045486648Y0003171488D01*
X0045526438Y0003187859D01*
X0045569750Y0003197785D01*
X0045616844Y0003201094D01*
X0045727875Y0003183090D01*
X0045815188Y0003129078D01*
X0045871777Y0003046062D01*
X0045890641Y0002940703D01*
X0045869543Y0002824602D01*
X0045806250Y0002734109D01*
X0045707637Y0002675844D01*
X0045580234Y0002656422D01*
X0045441617Y0002682805D01*
X0045338234Y0002761953D01*
X0045274039Y0002889699D01*
X0045252641Y0003061531D01*
X0045277691Y0003238949D01*
X0045352844Y0003373828D01*
X0045471609Y0003459035D01*
X0045627500Y0003487438D01*
X0045682027Y0003485289D01*
X0045734922Y0003478844D01*
X0045786742Y0003468102D01*
X0045838047Y0003453062D01*
X0045838047Y0003453062D01*
G37*
G36*
X0046727500Y0003118422D02*
X0046783273Y0003124438D01*
X0046820656Y0003142484D01*
X0046841797Y0003174496D01*
X0046848844Y0003222062D01*
X0046841797Y0003269070D01*
X0046820656Y0003300438D01*
X0046783273Y0003318227D01*
X0046727500Y0003324156D01*
X0046640531Y0003324156D01*
X0046640531Y0003118422D01*
X0046727500Y0003118422D01*
X0046727500Y0003118422D01*
G37*
G36*
X0046640531Y0002975594D02*
X0046640531Y0002672062D01*
X0046433766Y0002672062D01*
X0046433766Y0003474031D01*
X0046749500Y0003474031D01*
X0046886785Y0003460711D01*
X0046981703Y0003420750D01*
X0047037133Y0003352172D01*
X0047055609Y0003252656D01*
X0047045984Y0003180340D01*
X0047017109Y0003122203D01*
X0046969027Y0003077859D01*
X0046901438Y0003046922D01*
X0046941656Y0003031152D01*
X0046977406Y0003003094D01*
X0047011266Y0002960254D01*
X0047045469Y0002899797D01*
X0047157703Y0002672062D01*
X0046937531Y0002672062D01*
X0046839734Y0002871266D01*
X0046809957Y0002921883D01*
X0046779750Y0002953422D01*
X0046744430Y0002970051D01*
X0046698969Y0002975594D01*
X0046640531Y0002975594D01*
X0046640531Y0002975594D01*
G37*
G36*
X0047280766Y0003474031D02*
X0047838672Y0003474031D01*
X0047838672Y0003317625D01*
X0047487531Y0003317625D01*
X0047487531Y0003168438D01*
X0047817875Y0003168438D01*
X0047817875Y0003012031D01*
X0047487531Y0003012031D01*
X0047487531Y0002828297D01*
X0047850531Y0002828297D01*
X0047850531Y0002672062D01*
X0047280766Y0002672062D01*
X0047280766Y0003474031D01*
X0047280766Y0003474031D01*
G37*
G36*
X0048420469Y0002657625D02*
X0048404312Y0002657625D01*
X0048228141Y0002684996D01*
X0048095969Y0002767109D01*
X0048013469Y0002898207D01*
X0047985969Y0003072188D01*
X0048013426Y0003246125D01*
X0048095797Y0003377781D01*
X0048226379Y0003460797D01*
X0048398469Y0003488469D01*
X0048571848Y0003461055D01*
X0048702172Y0003378812D01*
X0048783770Y0003247414D01*
X0048810969Y0003072188D01*
X0048796531Y0002946289D01*
X0048753219Y0002839125D01*
X0048682793Y0002753445D01*
X0048587016Y0002692000D01*
X0048748578Y0002511531D01*
X0048551438Y0002511531D01*
X0048420469Y0002657625D01*
X0048420469Y0002657625D01*
G37*
G36*
X0048398469Y0003338594D02*
X0048314551Y0003321148D01*
X0048251859Y0003268812D01*
X0048212801Y0003184766D01*
X0048199781Y0003072188D01*
X0048212500Y0002958363D01*
X0048250656Y0002874703D01*
X0048313133Y0002823398D01*
X0048398469Y0002806297D01*
X0048482773Y0002823742D01*
X0048545594Y0002876078D01*
X0048584652Y0002960082D01*
X0048597672Y0003072188D01*
X0048584652Y0003184766D01*
X0048545594Y0003268812D01*
X0048482773Y0003321148D01*
X0048398469Y0003338594D01*
X0048398469Y0003338594D01*
G37*
G36*
X0048967375Y0003474031D02*
X0049174141Y0003474031D01*
X0049174141Y0002993297D01*
X0049182262Y0002908090D01*
X0049206625Y0002851156D01*
X0049249379Y0002819188D01*
X0049312672Y0002808531D01*
X0049376352Y0002819188D01*
X0049419234Y0002851156D01*
X0049443598Y0002908090D01*
X0049451719Y0002993297D01*
X0049451719Y0003474031D01*
X0049658484Y0003474031D01*
X0049658484Y0002993297D01*
X0049637129Y0002844711D01*
X0049573062Y0002739609D01*
X0049465340Y0002677219D01*
X0049312672Y0002656422D01*
X0049160348Y0002677219D01*
X0049052625Y0002739609D01*
X0048988688Y0002844711D01*
X0048967375Y0002993297D01*
X0048967375Y0003474031D01*
X0048967375Y0003474031D01*
G37*
G36*
X0049860609Y0003474031D02*
X0050067375Y0003474031D01*
X0050067375Y0002672062D01*
X0049860609Y0002672062D01*
X0049860609Y0003474031D01*
X0049860609Y0003474031D01*
G37*
G36*
X0050563578Y0003118422D02*
X0050619352Y0003124438D01*
X0050656734Y0003142484D01*
X0050677875Y0003174496D01*
X0050684922Y0003222062D01*
X0050677875Y0003269070D01*
X0050656734Y0003300438D01*
X0050619352Y0003318227D01*
X0050563578Y0003324156D01*
X0050476609Y0003324156D01*
X0050476609Y0003118422D01*
X0050563578Y0003118422D01*
X0050563578Y0003118422D01*
G37*
G36*
X0050476609Y0002975594D02*
X0050476609Y0002672062D01*
X0050269844Y0002672062D01*
X0050269844Y0003474031D01*
X0050585578Y0003474031D01*
X0050722863Y0003460711D01*
X0050817781Y0003420750D01*
X0050873211Y0003352172D01*
X0050891688Y0003252656D01*
X0050882062Y0003180340D01*
X0050853188Y0003122203D01*
X0050805105Y0003077859D01*
X0050737516Y0003046922D01*
X0050777734Y0003031152D01*
X0050813484Y0003003094D01*
X0050847344Y0002960254D01*
X0050881547Y0002899797D01*
X0050993781Y0002672062D01*
X0050773609Y0002672062D01*
X0050675813Y0002871266D01*
X0050646035Y0002921883D01*
X0050615828Y0002953422D01*
X0050580508Y0002970051D01*
X0050535047Y0002975594D01*
X0050476609Y0002975594D01*
X0050476609Y0002975594D01*
G37*
G36*
X0051116844Y0003474031D02*
X0051674750Y0003474031D01*
X0051674750Y0003317625D01*
X0051323609Y0003317625D01*
X0051323609Y0003168438D01*
X0051653953Y0003168438D01*
X0051653953Y0003012031D01*
X0051323609Y0003012031D01*
X0051323609Y0002828297D01*
X0051686609Y0002828297D01*
X0051686609Y0002672062D01*
X0051116844Y0002672062D01*
X0051116844Y0003474031D01*
X0051116844Y0003474031D01*
G37*
G36*
X0052075047Y0003317625D02*
X0052075047Y0002828297D01*
X0052149125Y0002828297D01*
X0052260844Y0002844023D01*
X0052342656Y0002891203D01*
X0052392930Y0002968332D01*
X0052409688Y0003073906D01*
X0052393016Y0003178793D01*
X0052343000Y0003255234D01*
X0052261273Y0003302027D01*
X0052149125Y0003317625D01*
X0052075047Y0003317625D01*
X0052075047Y0003317625D01*
G37*
G36*
X0051868281Y0003474031D02*
X0052086219Y0003474031D01*
X0052245590Y0003467500D01*
X0052358297Y0003447906D01*
X0052441312Y0003412844D01*
X0052511609Y0003359562D01*
X0052560723Y0003301082D01*
X0052595313Y0003234266D01*
X0052615938Y0003158770D01*
X0052622812Y0003073906D01*
X0052615938Y0002987926D01*
X0052595313Y0002911828D01*
X0052560723Y0002844926D01*
X0052511609Y0002786531D01*
X0052440711Y0002733207D01*
X0052356922Y0002698016D01*
X0052244129Y0002678551D01*
X0052086219Y0002672062D01*
X0051868281Y0002672062D01*
X0051868281Y0003474031D01*
X0051868281Y0003474031D01*
G37*
M02*
