G04 F.Cu*
%FSLAX46Y46*%
%MOMM*%
%IPPOS*%
%LPD*%
%ADD10C,0.400*%
%ADD11C,0.600*%
%ADD12C,0.800*%
%ADD13C,1.000*%
%ADD14C,1.200*%
%ADD15C,1.800*%
%ADD16C,2.200*%
%ADD17C,2.400*%
%ADD18C,4.000*%
%ADD19C,0.180*%
G01*
D15*
X0007620000Y0008890000D03*
D15*
X0007620000Y0011430000D03*
D15*
X0007620000Y0013970000D03*
D15*
X0007620000Y0016510000D03*
D15*
X0007620000Y0019050000D03*
D15*
X0007620000Y0021590000D03*
D15*
X0007620000Y0024130000D03*
D15*
X0007620000Y0026670000D03*
D15*
X0007620000Y0029210000D03*
D15*
X0007620000Y0031750000D03*
D15*
X0007620000Y0034290000D03*
D15*
X0007620000Y0036830000D03*
D15*
X0007620000Y0039370000D03*
D15*
X0007620000Y0041910000D03*
D15*
X0007620000Y0044450000D03*
D15*
X0033020000Y0008890000D03*
D15*
X0033020000Y0011430000D03*
D15*
X0033020000Y0013970000D03*
D15*
X0033020000Y0016510000D03*
D15*
X0033020000Y0019050000D03*
D15*
X0033020000Y0021590000D03*
D15*
X0033020000Y0024130000D03*
D15*
X0033020000Y0026670000D03*
D15*
X0033020000Y0029210000D03*
D15*
X0033020000Y0031750000D03*
D15*
X0033020000Y0034290000D03*
D15*
X0033020000Y0036830000D03*
D15*
X0033020000Y0039370000D03*
D15*
X0033020000Y0041910000D03*
D15*
X0033020000Y0044450000D03*
D15*
X0047498000Y0027940000D03*
D15*
X0050038000Y0027940000D03*
D15*
X0052578000Y0027940000D03*
D15*
X0055118000Y0027940000D03*
D15*
X0057658000Y0027940000D03*
D15*
X0060198000Y0027940000D03*
D15*
X0062738000Y0027940000D03*
D15*
X0048768000Y0014732000D03*
D15*
X0051308000Y0014732000D03*
D15*
X0053848000Y0014732000D03*
D15*
X0056388000Y0014732000D03*
D15*
X0058928000Y0014732000D03*
D15*
X0061468000Y0014732000D03*
D16*
X0082042000Y0047752000D03*
D16*
X0082042000Y0039116000D03*
D16*
X0058166000Y0042164000D03*
D16*
X0058166000Y0045212000D03*
D16*
X0058166000Y0047752000D03*
D16*
X0058166000Y0039116000D03*
D16*
X0065278000Y0031242000D03*
D16*
X0075438000Y0031242000D03*
D16*
X0065278000Y0026670000D03*
D16*
X0075438000Y0026670000D03*
D15*
X0038100000Y0046228000D03*
D15*
X0048260000Y0046228000D03*
D15*
X0050546000Y0044196000D03*
D15*
X0050546000Y0034036000D03*
D15*
X0038354000Y0032004000D03*
D15*
X0048514000Y0032004000D03*
D16*
X0074930000Y0018288000D03*
D16*
X0077470000Y0018288000D03*
D16*
X0080010000Y0018288000D03*
D18*
X0068580000Y0008128000D03*
D18*
X0076200000Y0008128000D03*
D14*
X0067056000Y0039116000D03*
D14*
X0071374000Y0016510000D03*
D14*
X0045466000Y0028194000D03*
D14*
X0045720000Y0025146000D03*
D14*
X0060198000Y0025146000D03*
D14*
X0045720000Y0023114000D03*
D12*
X0082042000Y0047752000D02*
X0065278000Y0047752000D01*
X0065278000Y0031242000D01*
D12*
X0058166000Y0047752000D02*
X0058166000Y0046990000D01*
X0063246000Y0046990000D01*
X0063246000Y0029718000D01*
X0064008000Y0029718000D01*
X0064008000Y0029210000D01*
X0065278000Y0029210000D01*
X0065278000Y0026670000D01*
D13*
X0075438000Y0031242000D02*
X0075438000Y0026670000D01*
D13*
X0075438000Y0026670000D02*
X0075438000Y0020066000D01*
X0077470000Y0020066000D01*
X0077470000Y0018288000D01*
D13*
X0007620000Y0008890000D02*
X0031242000Y0008890000D01*
X0031242000Y0007112000D01*
X0065786000Y0007112000D01*
X0065786000Y0013462000D01*
X0080010000Y0013462000D01*
X0080010000Y0018288000D01*
D13*
X0058166000Y0045212000D02*
X0052070000Y0045212000D01*
X0052070000Y0047498000D01*
X0049530000Y0047498000D01*
X0049530000Y0048006000D01*
X0038100000Y0048006000D01*
X0038100000Y0046228000D01*
D11*
X0033020000Y0008890000D02*
X0033020000Y0009652000D01*
X0046990000Y0009652000D01*
X0046990000Y0026162000D01*
X0050038000Y0026162000D01*
X0050038000Y0027940000D01*
D13*
X0038354000Y0032004000D02*
X0038354000Y0029718000D01*
X0052578000Y0029718000D01*
X0052578000Y0027940000D01*
D13*
X0052578000Y0027940000D02*
X0052578000Y0039116000D01*
X0058166000Y0039116000D01*
D13*
X0058166000Y0039116000D02*
X0058166000Y0042164000D01*
D13*
X0067056000Y0039116000D02*
X0082042000Y0039116000D01*
D13*
X0052578000Y0027940000D02*
X0052578000Y0016510000D01*
X0071374000Y0016510000D01*
D10*
X0033020000Y0029210000D02*
X0033020000Y0028194000D01*
X0045466000Y0028194000D01*
D10*
X0033020000Y0026670000D02*
X0045720000Y0026670000D01*
X0045720000Y0025146000D01*
D10*
X0060198000Y0025146000D02*
X0060198000Y0027940000D01*
D10*
X0033020000Y0024130000D02*
X0033020000Y0023114000D01*
X0045720000Y0023114000D01*
D10*
X0007620000Y0041910000D02*
X0031496000Y0041910000D01*
X0031496000Y0045974000D01*
X0036576000Y0045974000D01*
X0036576000Y0033528000D01*
X0048514000Y0033528000D01*
X0048514000Y0032004000D01*
D10*
X0048514000Y0032004000D02*
X0048514000Y0034036000D01*
X0050546000Y0034036000D01*
D10*
X0048260000Y0046228000D02*
X0048260000Y0044196000D01*
X0050546000Y0044196000D01*
M02*
