M48
;DRILL file generated for RaptorVR 1.0
METRIC,TZ
T01C0.400
T02C1.000
T03C1.100
T04C1.200
T05C2.000
%
T01
X67.056Y39.116
X71.374Y16.510
X45.466Y28.194
X45.720Y25.146
X60.198Y25.146
X45.720Y23.114
T02
X7.620Y8.890
X7.620Y11.430
X7.620Y13.970
X7.620Y16.510
X7.620Y19.050
X7.620Y21.590
X7.620Y24.130
X7.620Y26.670
X7.620Y29.210
X7.620Y31.750
X7.620Y34.290
X7.620Y36.830
X7.620Y39.370
X7.620Y41.910
X7.620Y44.450
X33.020Y8.890
X33.020Y11.430
X33.020Y13.970
X33.020Y16.510
X33.020Y19.050
X33.020Y21.590
X33.020Y24.130
X33.020Y26.670
X33.020Y29.210
X33.020Y31.750
X33.020Y34.290
X33.020Y36.830
X33.020Y39.370
X33.020Y41.910
X33.020Y44.450
X47.498Y27.940
X50.038Y27.940
X52.578Y27.940
X55.118Y27.940
X57.658Y27.940
X60.198Y27.940
X62.738Y27.940
X48.768Y14.732
X51.308Y14.732
X53.848Y14.732
X56.388Y14.732
X58.928Y14.732
X61.468Y14.732
X65.278Y31.242
X75.438Y31.242
X65.278Y26.670
X75.438Y26.670
X38.100Y46.228
X48.260Y46.228
X50.546Y44.196
X50.546Y34.036
X38.354Y32.004
X48.514Y32.004
T03
X74.930Y18.288
X77.470Y18.288
X80.010Y18.288
T04
X82.042Y47.752
X82.042Y39.116
X58.166Y42.164
X58.166Y45.212
X58.166Y47.752
X58.166Y39.116
T05
X68.580Y8.128
X76.200Y8.128
M30
