G04 F.Silkscreen*
%FSLAX46Y46*%
%MOMM*%
%IPPOS*%
%LPD*%
%ADD10C,0.400*%
%ADD11C,0.600*%
%ADD12C,0.800*%
%ADD13C,1.000*%
%ADD14C,1.200*%
%ADD15C,1.800*%
%ADD16C,2.200*%
%ADD17C,2.400*%
%ADD18C,4.000*%
%ADD19C,0.180*%
G01*
D19*
X0005080000Y0005080000D02*
X0035560000Y0005080000D01*
X0035560000Y0049530000D01*
X0005080000Y0049530000D01*
X0005080000Y0005080000D01*
D19*
X0046228000Y0013970000D02*
X0065278000Y0013970000D01*
X0065278000Y0028702000D01*
X0046228000Y0028702000D01*
X0046228000Y0013970000D01*
D19*
X0057150000Y0036322000D02*
X0083058000Y0036322000D01*
X0083058000Y0052578000D01*
X0057150000Y0052578000D01*
X0057150000Y0036322000D01*
D19*
X0064008000Y0030226000D02*
X0076708000Y0030226000D01*
X0076708000Y0032258000D01*
X0064008000Y0032258000D01*
X0064008000Y0030226000D01*
D19*
X0064008000Y0025654000D02*
X0076708000Y0025654000D01*
X0076708000Y0027686000D01*
X0064008000Y0027686000D01*
X0064008000Y0025654000D01*
D19*
X0037084000Y0045212000D02*
X0049276000Y0045212000D01*
X0049276000Y0047244000D01*
X0037084000Y0047244000D01*
X0037084000Y0045212000D01*
D19*
X0049530000Y0033020000D02*
X0051562000Y0033020000D01*
X0051562000Y0045212000D01*
X0049530000Y0045212000D01*
X0049530000Y0033020000D01*
D19*
X0037338000Y0030988000D02*
X0049530000Y0030988000D01*
X0049530000Y0033020000D01*
X0037338000Y0033020000D01*
X0037338000Y0030988000D01*
D19*
X0072644000Y0015748000D02*
X0082296000Y0015748000D01*
X0082296000Y0020828000D01*
X0072644000Y0020828000D01*
X0072644000Y0015748000D01*
D19*
X0066802000Y0006096000D02*
X0077978000Y0006096000D01*
X0077978000Y0010160000D01*
X0066802000Y0010160000D01*
X0066802000Y0006096000D01*
G36*
X0034854203Y0051231953D02*
X0034965750Y0051243984D01*
X0035040516Y0051280078D01*
X0035082797Y0051344102D01*
X0035096891Y0051439234D01*
X0035082797Y0051533250D01*
X0035040516Y0051595984D01*
X0034965750Y0051631562D01*
X0034854203Y0051643422D01*
X0034680266Y0051643422D01*
X0034680266Y0051231953D01*
X0034854203Y0051231953D01*
X0034854203Y0051231953D01*
G37*
G36*
X0034680266Y0050946297D02*
X0034680266Y0050339234D01*
X0034266734Y0050339234D01*
X0034266734Y0051943172D01*
X0034898203Y0051943172D01*
X0035172773Y0051916531D01*
X0035362609Y0051836609D01*
X0035473469Y0051699453D01*
X0035510422Y0051500422D01*
X0035491172Y0051355789D01*
X0035433422Y0051239516D01*
X0035337258Y0051150828D01*
X0035202078Y0051088953D01*
X0035282516Y0051057414D01*
X0035354016Y0051001297D01*
X0035421734Y0050915617D01*
X0035490141Y0050794703D01*
X0035714609Y0050339234D01*
X0035274266Y0050339234D01*
X0035078672Y0050737641D01*
X0035019117Y0050838875D01*
X0034958703Y0050901953D01*
X0034888063Y0050935211D01*
X0034797141Y0050946297D01*
X0034680266Y0050946297D01*
X0034680266Y0050946297D01*
G37*
G36*
X0036933891Y0050631422D02*
X0036287297Y0050631422D01*
X0036185203Y0050339234D01*
X0035769266Y0050339234D01*
X0036363266Y0051943172D01*
X0036856547Y0051943172D01*
X0037450547Y0050339234D01*
X0037034953Y0050339234D01*
X0036933891Y0050631422D01*
X0036933891Y0050631422D01*
G37*
G36*
X0036390422Y0050929109D02*
X0036829734Y0050929109D01*
X0036610422Y0051567109D01*
X0036390422Y0050929109D01*
X0036390422Y0050929109D01*
G37*
G36*
X0037663328Y0051943172D02*
X0038349453Y0051943172D01*
X0038620070Y0051909141D01*
X0038819359Y0051807047D01*
X0038942336Y0051642391D01*
X0038983328Y0051419984D01*
X0038942336Y0051196547D01*
X0038819359Y0051031547D01*
X0038620070Y0050929711D01*
X0038349453Y0050895766D01*
X0038076859Y0050895766D01*
X0038076859Y0050339234D01*
X0037663328Y0050339234D01*
X0037663328Y0051943172D01*
X0037663328Y0051943172D01*
G37*
G36*
X0038076859Y0051643422D02*
X0038076859Y0051195516D01*
X0038305453Y0051195516D01*
X0038412102Y0051210125D01*
X0038491422Y0051253953D01*
X0038540664Y0051324680D01*
X0038557078Y0051419984D01*
X0038540664Y0051514945D01*
X0038491422Y0051585328D01*
X0038412102Y0051628898D01*
X0038305453Y0051643422D01*
X0038076859Y0051643422D01*
X0038076859Y0051643422D01*
G37*
G36*
X0039084391Y0051943172D02*
X0040562516Y0051943172D01*
X0040562516Y0051630359D01*
X0040030734Y0051630359D01*
X0040030734Y0050339234D01*
X0039617203Y0050339234D01*
X0039617203Y0051630359D01*
X0039084391Y0051630359D01*
X0039084391Y0051943172D01*
X0039084391Y0051943172D01*
G37*
G36*
X0041509203Y0051672297D02*
X0041341367Y0051637406D01*
X0041215984Y0051532734D01*
X0041137867Y0051364641D01*
X0041111828Y0051139484D01*
X0041137867Y0050915273D01*
X0041215984Y0050747266D01*
X0041341367Y0050642594D01*
X0041509203Y0050607703D01*
X0041677812Y0050642594D01*
X0041803453Y0050747266D01*
X0041881570Y0050915273D01*
X0041907609Y0051139484D01*
X0041881570Y0051364641D01*
X0041803453Y0051532734D01*
X0041677812Y0051637406D01*
X0041509203Y0051672297D01*
X0041509203Y0051672297D01*
G37*
G36*
X0041509203Y0051972047D02*
X0041853984Y0051916703D01*
X0042114891Y0051750672D01*
X0042279375Y0051487359D01*
X0042334203Y0051139484D01*
X0042279375Y0050792555D01*
X0042114891Y0050529328D01*
X0041853984Y0050363297D01*
X0041509203Y0050307953D01*
X0041165023Y0050363297D01*
X0040903859Y0050529328D01*
X0040739117Y0050792555D01*
X0040684203Y0051139484D01*
X0040739117Y0051487359D01*
X0040903859Y0051750672D01*
X0041165023Y0051916703D01*
X0041509203Y0051972047D01*
X0041509203Y0051972047D01*
G37*
G36*
X0043234484Y0051231953D02*
X0043346031Y0051243984D01*
X0043420797Y0051280078D01*
X0043463078Y0051344102D01*
X0043477172Y0051439234D01*
X0043463078Y0051533250D01*
X0043420797Y0051595984D01*
X0043346031Y0051631562D01*
X0043234484Y0051643422D01*
X0043060547Y0051643422D01*
X0043060547Y0051231953D01*
X0043234484Y0051231953D01*
X0043234484Y0051231953D01*
G37*
G36*
X0043060547Y0050946297D02*
X0043060547Y0050339234D01*
X0042647016Y0050339234D01*
X0042647016Y0051943172D01*
X0043278484Y0051943172D01*
X0043553055Y0051916531D01*
X0043742891Y0051836609D01*
X0043853750Y0051699453D01*
X0043890703Y0051500422D01*
X0043871453Y0051355789D01*
X0043813703Y0051239516D01*
X0043717539Y0051150828D01*
X0043582359Y0051088953D01*
X0043662797Y0051057414D01*
X0043734297Y0051001297D01*
X0043802016Y0050915617D01*
X0043870422Y0050794703D01*
X0044094891Y0050339234D01*
X0043654547Y0050339234D01*
X0043458953Y0050737641D01*
X0043399398Y0050838875D01*
X0043338984Y0050901953D01*
X0043268344Y0050935211D01*
X0043177422Y0050946297D01*
X0043060547Y0050946297D01*
X0043060547Y0050946297D01*
G37*
G36*
X0044149547Y0051943172D02*
X0044565484Y0051943172D01*
X0044990703Y0050759297D01*
X0045415234Y0051943172D01*
X0045830828Y0051943172D01*
X0045236828Y0050339234D01*
X0044743547Y0050339234D01*
X0044149547Y0051943172D01*
X0044149547Y0051943172D01*
G37*
G36*
X0046631078Y0051231953D02*
X0046742625Y0051243984D01*
X0046817391Y0051280078D01*
X0046859672Y0051344102D01*
X0046873766Y0051439234D01*
X0046859672Y0051533250D01*
X0046817391Y0051595984D01*
X0046742625Y0051631562D01*
X0046631078Y0051643422D01*
X0046457141Y0051643422D01*
X0046457141Y0051231953D01*
X0046631078Y0051231953D01*
X0046631078Y0051231953D01*
G37*
G36*
X0046457141Y0050946297D02*
X0046457141Y0050339234D01*
X0046043609Y0050339234D01*
X0046043609Y0051943172D01*
X0046675078Y0051943172D01*
X0046949648Y0051916531D01*
X0047139484Y0051836609D01*
X0047250344Y0051699453D01*
X0047287297Y0051500422D01*
X0047268047Y0051355789D01*
X0047210297Y0051239516D01*
X0047114133Y0051150828D01*
X0046978953Y0051088953D01*
X0047059391Y0051057414D01*
X0047130891Y0051001297D01*
X0047198609Y0050915617D01*
X0047267016Y0050794703D01*
X0047491484Y0050339234D01*
X0047051141Y0050339234D01*
X0046855547Y0050737641D01*
X0046795992Y0050838875D01*
X0046735578Y0050901953D01*
X0046664938Y0050935211D01*
X0046574016Y0050946297D01*
X0046457141Y0050946297D01*
X0046457141Y0050946297D01*
G37*
G36*
X0048559172Y0050624891D02*
X0048924578Y0050624891D01*
X0048924578Y0051661641D01*
X0048549547Y0051584297D01*
X0048549547Y0051865828D01*
X0048922172Y0051943172D01*
X0049315422Y0051943172D01*
X0049315422Y0050624891D01*
X0049680828Y0050624891D01*
X0049680828Y0050339234D01*
X0048559172Y0050339234D01*
X0048559172Y0050624891D01*
X0048559172Y0050624891D01*
G37*
G36*
X0050056547Y0050754828D02*
X0050443266Y0050754828D01*
X0050443266Y0050339234D01*
X0050056547Y0050339234D01*
X0050056547Y0050754828D01*
X0050056547Y0050754828D01*
G37*
G36*
X0051679734Y0051142922D02*
X0051665641Y0051399188D01*
X0051623359Y0051566422D01*
X0051547734Y0051658719D01*
X0051433609Y0051689484D01*
X0051319570Y0051658719D01*
X0051243516Y0051566422D01*
X0051200719Y0051399188D01*
X0051186453Y0051142922D01*
X0051200719Y0050883562D01*
X0051243516Y0050713922D01*
X0051319570Y0050620594D01*
X0051433609Y0050589484D01*
X0051547047Y0050620594D01*
X0051622672Y0050713922D01*
X0051665469Y0050883562D01*
X0051679734Y0051142922D01*
X0051679734Y0051142922D01*
G37*
G36*
X0052093266Y0051139484D02*
X0052050297Y0050786539D01*
X0051921391Y0050524516D01*
X0051713508Y0050362094D01*
X0051433609Y0050307953D01*
X0051152938Y0050362094D01*
X0050944797Y0050524516D01*
X0050815891Y0050786539D01*
X0050772922Y0051139484D01*
X0050815891Y0051493375D01*
X0050944797Y0051755484D01*
X0051152938Y0051917906D01*
X0051433609Y0051972047D01*
X0051713508Y0051917906D01*
X0051921391Y0051755484D01*
X0052050297Y0051493375D01*
X0052093266Y0051139484D01*
X0052093266Y0051139484D01*
G37*
G36*
X0016715125Y0002438094D02*
X0017323750Y0002438094D01*
X0017323750Y0002267469D01*
X0016940688Y0002267469D01*
X0016940688Y0002104719D01*
X0017301062Y0002104719D01*
X0017301062Y0001934094D01*
X0016940688Y0001934094D01*
X0016940688Y0001733656D01*
X0017336688Y0001733656D01*
X0017336688Y0001563219D01*
X0016715125Y0001563219D01*
X0016715125Y0002438094D01*
X0016715125Y0002438094D01*
G37*
G36*
X0018143500Y0002410531D02*
X0018143500Y0002225281D01*
X0018072344Y0002253547D01*
X0018002875Y0002273844D01*
X0017936312Y0002286219D01*
X0017873500Y0002290344D01*
X0017803188Y0002284766D01*
X0017753875Y0002268031D01*
X0017724906Y0002239719D01*
X0017715250Y0002199031D01*
X0017721766Y0002167672D01*
X0017741312Y0002144094D01*
X0017778016Y0002125953D01*
X0017836000Y0002110531D01*
X0017932000Y0002091219D01*
X0018056781Y0002054187D01*
X0018139375Y0002001969D01*
X0018185641Y0001929688D01*
X0018201062Y0001832094D01*
X0018179594Y0001706000D01*
X0018115188Y0001616844D01*
X0018006672Y0001563828D01*
X0017852875Y0001546156D01*
X0017769625Y0001550141D01*
X0017686000Y0001562094D01*
X0017602188Y0001581688D01*
X0017518375Y0001608969D01*
X0017518375Y0001799281D01*
X0017600781Y0001760281D01*
X0017680375Y0001732156D01*
X0017757203Y0001715281D01*
X0017831312Y0001709656D01*
X0017896516Y0001715797D01*
X0017944375Y0001734219D01*
X0017973766Y0001764219D01*
X0017983562Y0001804719D01*
X0017976906Y0001840953D01*
X0017956938Y0001867906D01*
X0017917047Y0001889047D01*
X0017850625Y0001907844D01*
X0017763250Y0001927156D01*
X0017649625Y0001963625D01*
X0017571250Y0002016781D01*
X0017525828Y0002088969D01*
X0017510688Y0002182531D01*
X0017531781Y0002298125D01*
X0017595062Y0002383531D01*
X0017697906Y0002436266D01*
X0017837688Y0002453844D01*
X0017910859Y0002451125D01*
X0017986000Y0002442969D01*
X0018063438Y0002429422D01*
X0018143500Y0002410531D01*
X0018143500Y0002410531D01*
G37*
G36*
X0018399062Y0002438094D02*
X0018773312Y0002438094D01*
X0018920922Y0002419531D01*
X0019029625Y0002363844D01*
X0019096703Y0002274031D01*
X0019119062Y0002152719D01*
X0019096703Y0002030844D01*
X0019029625Y0001940844D01*
X0018920922Y0001885297D01*
X0018773312Y0001866781D01*
X0018624625Y0001866781D01*
X0018624625Y0001563219D01*
X0018399062Y0001563219D01*
X0018399062Y0002438094D01*
X0018399062Y0002438094D01*
G37*
G36*
X0018624625Y0002274594D02*
X0018624625Y0002030281D01*
X0018749312Y0002030281D01*
X0018807484Y0002038250D01*
X0018850750Y0002062156D01*
X0018877609Y0002100734D01*
X0018886562Y0002152719D01*
X0018877609Y0002204516D01*
X0018850750Y0002242906D01*
X0018807484Y0002266672D01*
X0018749312Y0002274594D01*
X0018624625Y0002274594D01*
X0018624625Y0002274594D01*
G37*
G36*
X0019727312Y0002034969D02*
X0019805172Y0002003656D01*
X0019861750Y0001955469D01*
X0019896344Y0001891297D01*
X0019907875Y0001811656D01*
X0019882938Y0001697141D01*
X0019808125Y0001613844D01*
X0019685734Y0001563078D01*
X0019517688Y0001546156D01*
X0019450141Y0001548875D01*
X0019382500Y0001557031D01*
X0019315188Y0001570625D01*
X0019248625Y0001589656D01*
X0019248625Y0001763656D01*
X0019311719Y0001735859D01*
X0019374250Y0001715844D01*
X0019436172Y0001703750D01*
X0019497062Y0001699719D01*
X0019576234Y0001707453D01*
X0019634500Y0001730656D01*
X0019670359Y0001768531D01*
X0019682313Y0001819906D01*
X0019670078Y0001872453D01*
X0019633375Y0001910469D01*
X0019572766Y0001933531D01*
X0019488812Y0001941219D01*
X0019398625Y0001941219D01*
X0019398625Y0002086531D01*
X0019493500Y0002086531D01*
X0019567703Y0002093188D01*
X0019620062Y0002113156D01*
X0019651281Y0002146766D01*
X0019661688Y0002194344D01*
X0019651562Y0002238922D01*
X0019621188Y0002272156D01*
X0019572484Y0002292828D01*
X0019507000Y0002299719D01*
X0019452297Y0002296625D01*
X0019396938Y0002287344D01*
X0019341391Y0002272203D01*
X0019286125Y0002251156D01*
X0019286125Y0002416344D01*
X0019352594Y0002432750D01*
X0019418500Y0002444469D01*
X0019483562Y0002451500D01*
X0019547500Y0002453844D01*
X0019696469Y0002439828D01*
X0019802500Y0002397781D01*
X0019866062Y0002327750D01*
X0019887250Y0002229406D01*
X0019877125Y0002159656D01*
X0019846750Y0002103781D01*
X0019796734Y0002062109D01*
X0019727312Y0002034969D01*
X0019727312Y0002034969D01*
G37*
G36*
X0020349062Y0001728969D02*
X0020734000Y0001728969D01*
X0020734000Y0001563219D01*
X0020098188Y0001563219D01*
X0020098188Y0001728969D01*
X0020417500Y0002010969D01*
X0020454812Y0002049172D01*
X0020480875Y0002086531D01*
X0020496203Y0002124172D01*
X0020501312Y0002163219D01*
X0020491000Y0002218719D01*
X0020460062Y0002262219D01*
X0020411969Y0002290344D01*
X0020350188Y0002299719D01*
X0020294969Y0002294094D01*
X0020234688Y0002277219D01*
X0020169859Y0002249187D01*
X0020100625Y0002210094D01*
X0020100625Y0002402281D01*
X0020176328Y0002424406D01*
X0020251188Y0002440531D01*
X0020324875Y0002450516D01*
X0020397062Y0002453844D01*
X0020536656Y0002436547D01*
X0020641188Y0002384656D01*
X0020706438Y0002301969D01*
X0020728188Y0002191906D01*
X0020718953Y0002122859D01*
X0020691250Y0002058594D01*
X0020633969Y0001986359D01*
X0020536000Y0001893031D01*
X0020349062Y0001728969D01*
X0020349062Y0001728969D01*
G37*
G36*
X0021366250Y0002438094D02*
X0021591812Y0002438094D01*
X0021591812Y0001913656D01*
X0021600672Y0001820703D01*
X0021627250Y0001758594D01*
X0021673891Y0001723719D01*
X0021742938Y0001712094D01*
X0021812406Y0001723719D01*
X0021859188Y0001758594D01*
X0021885766Y0001820703D01*
X0021894625Y0001913656D01*
X0021894625Y0002438094D01*
X0022120188Y0002438094D01*
X0022120188Y0001913656D01*
X0022096891Y0001751562D01*
X0022027000Y0001636906D01*
X0021909484Y0001568844D01*
X0021742938Y0001546156D01*
X0021576766Y0001568844D01*
X0021459250Y0001636906D01*
X0021389500Y0001751562D01*
X0021366250Y0001913656D01*
X0021366250Y0002438094D01*
X0021366250Y0002438094D01*
G37*
G36*
X0022949312Y0002410531D02*
X0022949312Y0002225281D01*
X0022878156Y0002253547D01*
X0022808687Y0002273844D01*
X0022742125Y0002286219D01*
X0022679312Y0002290344D01*
X0022609000Y0002284766D01*
X0022559688Y0002268031D01*
X0022530719Y0002239719D01*
X0022521062Y0002199031D01*
X0022527578Y0002167672D01*
X0022547125Y0002144094D01*
X0022583828Y0002125953D01*
X0022641812Y0002110531D01*
X0022737812Y0002091219D01*
X0022862594Y0002054187D01*
X0022945188Y0002001969D01*
X0022991453Y0001929688D01*
X0023006875Y0001832094D01*
X0022985406Y0001706000D01*
X0022921000Y0001616844D01*
X0022812484Y0001563828D01*
X0022658688Y0001546156D01*
X0022575438Y0001550141D01*
X0022491812Y0001562094D01*
X0022408000Y0001581688D01*
X0022324188Y0001608969D01*
X0022324188Y0001799281D01*
X0022406594Y0001760281D01*
X0022486188Y0001732156D01*
X0022563016Y0001715281D01*
X0022637125Y0001709656D01*
X0022702328Y0001715797D01*
X0022750188Y0001734219D01*
X0022779578Y0001764219D01*
X0022789375Y0001804719D01*
X0022782719Y0001840953D01*
X0022762750Y0001867906D01*
X0022722859Y0001889047D01*
X0022656438Y0001907844D01*
X0022569062Y0001927156D01*
X0022455438Y0001963625D01*
X0022377062Y0002016781D01*
X0022331641Y0002088969D01*
X0022316500Y0002182531D01*
X0022337594Y0002298125D01*
X0022400875Y0002383531D01*
X0022503719Y0002436266D01*
X0022643500Y0002453844D01*
X0022716672Y0002451125D01*
X0022791812Y0002442969D01*
X0022869250Y0002429422D01*
X0022949312Y0002410531D01*
X0022949312Y0002410531D01*
G37*
G36*
X0023555125Y0002099281D02*
X0023602047Y0002105141D01*
X0023635938Y0002122719D01*
X0023656609Y0002151734D01*
X0023663500Y0002191906D01*
X0023656609Y0002231703D01*
X0023635938Y0002260719D01*
X0023602047Y0002278578D01*
X0023555125Y0002284531D01*
X0023430438Y0002284531D01*
X0023430438Y0002099281D01*
X0023555125Y0002099281D01*
X0023555125Y0002099281D01*
G37*
G36*
X0023562812Y0001716781D02*
X0023622297Y0001723953D01*
X0023665000Y0001745469D01*
X0023690734Y0001781469D01*
X0023699312Y0001832094D01*
X0023690828Y0001881922D01*
X0023665375Y0001917406D01*
X0023622766Y0001938781D01*
X0023562812Y0001945906D01*
X0023430438Y0001945906D01*
X0023430438Y0001716781D01*
X0023562812Y0001716781D01*
X0023562812Y0001716781D01*
G37*
G36*
X0023772625Y0002031406D02*
X0023836984Y0002001312D01*
X0023884938Y0001953406D01*
X0023914891Y0001890172D01*
X0023924875Y0001814094D01*
X0023903500Y0001703609D01*
X0023839375Y0001625281D01*
X0023731562Y0001578734D01*
X0023579125Y0001563219D01*
X0023204875Y0001563219D01*
X0023204875Y0002438094D01*
X0023543500Y0002438094D01*
X0023700625Y0002424312D01*
X0023807500Y0002382969D01*
X0023868812Y0002311297D01*
X0023889250Y0002206531D01*
X0023881750Y0002147516D01*
X0023859250Y0002097969D01*
X0023822688Y0002058922D01*
X0023772625Y0002031406D01*
X0023772625Y0002031406D01*
G37*
G36*
X0052092301Y0030464855D02*
X0052415246Y0030464855D01*
X0052639262Y0029938145D01*
X0052864754Y0030464855D01*
X0053187066Y0030464855D01*
X0053187066Y0029480621D01*
X0052947230Y0029480621D01*
X0052947230Y0030200551D01*
X0052720473Y0029669832D01*
X0052559527Y0029669832D01*
X0052332770Y0030200551D01*
X0052332770Y0029480621D01*
X0052092301Y0029480621D01*
X0052092301Y0030464855D01*
X0052092301Y0030464855D01*
G37*
G36*
X0053435762Y0030464855D02*
X0053689520Y0030464855D01*
X0053689520Y0029874863D01*
X0053699486Y0029770291D01*
X0053729387Y0029700418D01*
X0053781857Y0029661184D01*
X0053859535Y0029648105D01*
X0053937688Y0029661184D01*
X0053990316Y0029700418D01*
X0054020217Y0029770291D01*
X0054030184Y0029874863D01*
X0054030184Y0030464855D01*
X0054283941Y0030464855D01*
X0054283941Y0029874863D01*
X0054257732Y0029692508D01*
X0054179105Y0029563520D01*
X0054046900Y0029486949D01*
X0053859535Y0029461426D01*
X0053672592Y0029486949D01*
X0053540387Y0029563520D01*
X0053461918Y0029692508D01*
X0053435762Y0029874863D01*
X0053435762Y0030464855D01*
X0053435762Y0030464855D01*
G37*
G36*
X0054532004Y0030464855D02*
X0054854949Y0030464855D01*
X0055078965Y0029938145D01*
X0055304457Y0030464855D01*
X0055626770Y0030464855D01*
X0055626770Y0029480621D01*
X0055386934Y0029480621D01*
X0055386934Y0030200551D01*
X0055160176Y0029669832D01*
X0054999230Y0029669832D01*
X0054772473Y0030200551D01*
X0054772473Y0029480621D01*
X0054532004Y0029480621D01*
X0054532004Y0030464855D01*
X0054532004Y0030464855D01*
G37*
G36*
X0056324973Y0030298637D02*
X0056221982Y0030277227D01*
X0056145043Y0030212996D01*
X0056097107Y0030109848D01*
X0056081129Y0029971684D01*
X0056097107Y0029834100D01*
X0056145043Y0029731004D01*
X0056221982Y0029666773D01*
X0056324973Y0029645363D01*
X0056428438Y0029666773D01*
X0056505535Y0029731004D01*
X0056553471Y0029834100D01*
X0056569449Y0029971684D01*
X0056553471Y0030109848D01*
X0056505535Y0030212996D01*
X0056428438Y0030277227D01*
X0056324973Y0030298637D01*
X0056324973Y0030298637D01*
G37*
G36*
X0056324973Y0030482574D02*
X0056536543Y0030448613D01*
X0056696645Y0030346730D01*
X0056797578Y0030185152D01*
X0056831223Y0029971684D01*
X0056797578Y0029758795D01*
X0056696645Y0029597270D01*
X0056536543Y0029495387D01*
X0056324973Y0029461426D01*
X0056113771Y0029495387D01*
X0055953512Y0029597270D01*
X0055852420Y0029758795D01*
X0055818723Y0029971684D01*
X0055852420Y0030185152D01*
X0055953512Y0030346730D01*
X0056113771Y0030448613D01*
X0056324973Y0030482574D01*
X0056324973Y0030482574D01*
G37*
G36*
X0057527316Y0029655910D02*
X0057751543Y0029655910D01*
X0057751543Y0030292098D01*
X0057521410Y0030244637D01*
X0057521410Y0030417395D01*
X0057750066Y0030464855D01*
X0057991379Y0030464855D01*
X0057991379Y0029655910D01*
X0058215605Y0029655910D01*
X0058215605Y0029480621D01*
X0057527316Y0029480621D01*
X0057527316Y0029655910D01*
X0057527316Y0029655910D01*
G37*
G36*
X0058446160Y0029735645D02*
X0058683465Y0029735645D01*
X0058683465Y0029480621D01*
X0058446160Y0029480621D01*
X0058446160Y0029735645D01*
X0058446160Y0029735645D01*
G37*
G36*
X0058979410Y0029655910D02*
X0059203637Y0029655910D01*
X0059203637Y0030292098D01*
X0058973504Y0030244637D01*
X0058973504Y0030417395D01*
X0059202160Y0030464855D01*
X0059443473Y0030464855D01*
X0059443473Y0029655910D01*
X0059667699Y0029655910D01*
X0059667699Y0029480621D01*
X0058979410Y0029480621D01*
X0058979410Y0029655910D01*
X0058979410Y0029655910D01*
G37*
G36*
X0065549461Y0035217840D02*
X0066322117Y0035217840D01*
X0066322117Y0035054324D01*
X0066044141Y0035054324D01*
X0066044141Y0034379418D01*
X0065827977Y0034379418D01*
X0065827977Y0035054324D01*
X0065549461Y0035054324D01*
X0065549461Y0035217840D01*
X0065549461Y0035217840D01*
G37*
G36*
X0066434062Y0035217840D02*
X0066792719Y0035217840D01*
X0066934178Y0035200051D01*
X0067038352Y0035146684D01*
X0067102635Y0035060613D01*
X0067124063Y0034944355D01*
X0067102635Y0034827559D01*
X0067038352Y0034741309D01*
X0066934178Y0034688076D01*
X0066792719Y0034670332D01*
X0066650227Y0034670332D01*
X0066650227Y0034379418D01*
X0066434062Y0034379418D01*
X0066434062Y0035217840D01*
X0066434062Y0035217840D01*
G37*
G36*
X0066650227Y0035061152D02*
X0066650227Y0034827020D01*
X0066769719Y0034827020D01*
X0066825467Y0034834656D01*
X0066866930Y0034857566D01*
X0066892670Y0034894537D01*
X0066901250Y0034944355D01*
X0066892670Y0034993994D01*
X0066866930Y0035030785D01*
X0066825467Y0035053561D01*
X0066769719Y0035061152D01*
X0066650227Y0035061152D01*
X0066650227Y0035061152D01*
G37*
G36*
X0067594664Y0035039770D02*
X0067357836Y0034688840D01*
X0067594664Y0034688840D01*
X0067594664Y0035039770D01*
X0067594664Y0035039770D01*
G37*
G36*
X0067558727Y0035217840D02*
X0067799148Y0035217840D01*
X0067799148Y0034688840D01*
X0067918641Y0034688840D01*
X0067918641Y0034532152D01*
X0067799148Y0034532152D01*
X0067799148Y0034379418D01*
X0067594664Y0034379418D01*
X0067594664Y0034532152D01*
X0067223070Y0034532152D01*
X0067223070Y0034717410D01*
X0067558727Y0035217840D01*
X0067558727Y0035217840D01*
G37*
G36*
X0068500469Y0034799527D02*
X0068493102Y0034933484D01*
X0068471000Y0035020902D01*
X0068431469Y0035069148D01*
X0068371812Y0035085230D01*
X0068312201Y0035069148D01*
X0068272445Y0035020902D01*
X0068250074Y0034933484D01*
X0068242617Y0034799527D01*
X0068250074Y0034663953D01*
X0068272445Y0034575277D01*
X0068312201Y0034526492D01*
X0068371812Y0034510230D01*
X0068431109Y0034526492D01*
X0068470641Y0034575277D01*
X0068493012Y0034663953D01*
X0068500469Y0034799527D01*
X0068500469Y0034799527D01*
G37*
G36*
X0068716633Y0034797730D02*
X0068694172Y0034613236D01*
X0068626789Y0034476270D01*
X0068518123Y0034391367D01*
X0068371812Y0034363066D01*
X0068225098Y0034391367D01*
X0068116297Y0034476270D01*
X0068048914Y0034613236D01*
X0068026453Y0034797730D01*
X0068048914Y0034982719D01*
X0068116297Y0035119730D01*
X0068225098Y0035204633D01*
X0068371812Y0035232934D01*
X0068518123Y0035204633D01*
X0068626789Y0035119730D01*
X0068694172Y0034982719D01*
X0068716633Y0034797730D01*
X0068716633Y0034797730D01*
G37*
G36*
X0068893445Y0035217840D02*
X0069430891Y0035217840D01*
X0069430891Y0035058816D01*
X0069065945Y0035058816D01*
X0069065945Y0034929082D01*
X0069090652Y0034935102D01*
X0069115539Y0034939504D01*
X0069141010Y0034942334D01*
X0069167469Y0034943277D01*
X0069303762Y0034924096D01*
X0069406094Y0034866551D01*
X0069470107Y0034774775D01*
X0069491445Y0034652902D01*
X0069468221Y0034531748D01*
X0069398547Y0034439973D01*
X0069287590Y0034382293D01*
X0069140516Y0034363066D01*
X0069069539Y0034366525D01*
X0068999281Y0034376902D01*
X0068929607Y0034394287D01*
X0068860383Y0034418770D01*
X0068860383Y0034588934D01*
X0068927092Y0034554479D01*
X0068990297Y0034529816D01*
X0069050043Y0034515127D01*
X0069106375Y0034510230D01*
X0069176543Y0034519844D01*
X0069230000Y0034548684D01*
X0069263961Y0034593965D01*
X0069275281Y0034652902D01*
X0069263961Y0034712154D01*
X0069230000Y0034757301D01*
X0069176543Y0034786006D01*
X0069106375Y0034795574D01*
X0069058129Y0034792520D01*
X0069006828Y0034783355D01*
X0068952158Y0034768037D01*
X0068893445Y0034746160D01*
X0068893445Y0035217840D01*
X0068893445Y0035217840D01*
G37*
G36*
X0069987922Y0034793238D02*
X0069938238Y0034784029D01*
X0069902750Y0034756402D01*
X0069881457Y0034710492D01*
X0069874359Y0034646074D01*
X0069881457Y0034581746D01*
X0069902750Y0034535746D01*
X0069938238Y0034508254D01*
X0069987922Y0034499090D01*
X0070037875Y0034508254D01*
X0070073453Y0034535746D01*
X0070094746Y0034581746D01*
X0070101844Y0034646074D01*
X0070094746Y0034710492D01*
X0070073453Y0034756402D01*
X0070037875Y0034784029D01*
X0069987922Y0034793238D01*
X0069987922Y0034793238D01*
G37*
G36*
X0070255117Y0035195918D02*
X0070255117Y0035040848D01*
X0070203277Y0035062859D01*
X0070154492Y0035078223D01*
X0070107953Y0035087252D01*
X0070062492Y0035090262D01*
X0069976646Y0035076830D01*
X0069912094Y0035036535D01*
X0069869418Y0034970006D01*
X0069849203Y0034877512D01*
X0069887746Y0034901545D01*
X0069929344Y0034918660D01*
X0069974625Y0034929037D01*
X0070023859Y0034932496D01*
X0070139938Y0034913674D01*
X0070231219Y0034857207D01*
X0070290381Y0034770418D01*
X0070310102Y0034660270D01*
X0070288045Y0034538891D01*
X0070221875Y0034444285D01*
X0070118779Y0034383371D01*
X0069985586Y0034363066D01*
X0069840668Y0034390648D01*
X0069732586Y0034473395D01*
X0069665473Y0034606947D01*
X0069643102Y0034786590D01*
X0069669291Y0034972072D01*
X0069747859Y0035113082D01*
X0069872023Y0035202162D01*
X0070035000Y0035231855D01*
X0070092006Y0035229609D01*
X0070147305Y0035222871D01*
X0070201480Y0035211641D01*
X0070255117Y0035195918D01*
X0070255117Y0035195918D01*
G37*
G36*
X0070877914Y0035217840D02*
X0071094078Y0035217840D01*
X0071094078Y0034715254D01*
X0071102568Y0034626174D01*
X0071128039Y0034566652D01*
X0071172736Y0034533230D01*
X0071238906Y0034522090D01*
X0071305480Y0034533230D01*
X0071350312Y0034566652D01*
X0071375783Y0034626174D01*
X0071384273Y0034715254D01*
X0071384273Y0035217840D01*
X0071600438Y0035217840D01*
X0071600438Y0034715254D01*
X0071578111Y0034559914D01*
X0071511133Y0034450035D01*
X0071398514Y0034384809D01*
X0071238906Y0034363066D01*
X0071079658Y0034384809D01*
X0070967039Y0034450035D01*
X0070900195Y0034559914D01*
X0070877914Y0034715254D01*
X0070877914Y0035217840D01*
X0070877914Y0035217840D01*
G37*
G36*
X0072395016Y0035191426D02*
X0072395016Y0035013895D01*
X0072326824Y0035040982D01*
X0072260250Y0035060434D01*
X0072196461Y0035072293D01*
X0072136266Y0035076246D01*
X0072068883Y0035070900D01*
X0072021625Y0035054863D01*
X0071993863Y0035027730D01*
X0071984609Y0034988738D01*
X0071990854Y0034958686D01*
X0072009586Y0034936090D01*
X0072044760Y0034918705D01*
X0072100328Y0034903926D01*
X0072192328Y0034885418D01*
X0072311910Y0034849930D01*
X0072391062Y0034799887D01*
X0072435400Y0034730617D01*
X0072450180Y0034637090D01*
X0072429605Y0034516250D01*
X0072367883Y0034430809D01*
X0072263889Y0034380002D01*
X0072116500Y0034363066D01*
X0072036719Y0034366885D01*
X0071956578Y0034378340D01*
X0071876258Y0034397117D01*
X0071795938Y0034423262D01*
X0071795938Y0034605645D01*
X0071874910Y0034568270D01*
X0071951188Y0034541316D01*
X0072024814Y0034525145D01*
X0072095836Y0034519754D01*
X0072158322Y0034525639D01*
X0072204188Y0034543293D01*
X0072232354Y0034572043D01*
X0072241742Y0034610855D01*
X0072235363Y0034645580D01*
X0072216227Y0034671410D01*
X0072177998Y0034691670D01*
X0072114344Y0034709684D01*
X0072030609Y0034728191D01*
X0071921719Y0034763141D01*
X0071846609Y0034814082D01*
X0071803080Y0034883262D01*
X0071788570Y0034972926D01*
X0071808785Y0035083703D01*
X0071869430Y0035165551D01*
X0071967988Y0035216088D01*
X0072101945Y0035232934D01*
X0072172068Y0035230328D01*
X0072244078Y0035222512D01*
X0072318289Y0035209529D01*
X0072395016Y0035191426D01*
X0072395016Y0035191426D01*
G37*
G36*
X0072975586Y0034893145D02*
X0073020553Y0034898760D01*
X0073053031Y0034915605D01*
X0073072842Y0034943412D01*
X0073079445Y0034981910D01*
X0073072842Y0035020049D01*
X0073053031Y0035047855D01*
X0073020553Y0035064971D01*
X0072975586Y0035070676D01*
X0072856094Y0035070676D01*
X0072856094Y0034893145D01*
X0072975586Y0034893145D01*
X0072975586Y0034893145D01*
G37*
G36*
X0072982953Y0034526582D02*
X0073039959Y0034533455D01*
X0073080883Y0034554074D01*
X0073105545Y0034588574D01*
X0073113766Y0034637090D01*
X0073105635Y0034684842D01*
X0073081242Y0034718848D01*
X0073040408Y0034739332D01*
X0072982953Y0034746160D01*
X0072856094Y0034746160D01*
X0072856094Y0034526582D01*
X0072982953Y0034526582D01*
X0072982953Y0034526582D01*
G37*
G36*
X0073184023Y0034828098D02*
X0073245701Y0034799258D01*
X0073291656Y0034753348D01*
X0073320361Y0034692748D01*
X0073329930Y0034619840D01*
X0073309445Y0034513959D01*
X0073247992Y0034438895D01*
X0073144672Y0034394287D01*
X0072998586Y0034379418D01*
X0072639930Y0034379418D01*
X0072639930Y0035217840D01*
X0072964445Y0035217840D01*
X0073115023Y0035204633D01*
X0073217445Y0035165012D01*
X0073276203Y0035096326D01*
X0073295789Y0034995926D01*
X0073288602Y0034939369D01*
X0073267039Y0034891887D01*
X0073232000Y0034854467D01*
X0073184023Y0034828098D01*
X0073184023Y0034828098D01*
G37*
G36*
X0073473141Y0034792160D02*
X0073825688Y0034792160D01*
X0073825688Y0034628824D01*
X0073473141Y0034628824D01*
X0073473141Y0034792160D01*
X0073473141Y0034792160D01*
G37*
G36*
X0074658539Y0034425418D02*
X0074597670Y0034398330D01*
X0074534375Y0034378879D01*
X0074468430Y0034367020D01*
X0074399609Y0034363066D01*
X0074211881Y0034392355D01*
X0074067727Y0034480223D01*
X0073975951Y0034618178D01*
X0073945359Y0034797730D01*
X0073975951Y0034977777D01*
X0074067727Y0035115777D01*
X0074211881Y0035203645D01*
X0074399609Y0035232934D01*
X0074468430Y0035228980D01*
X0074534375Y0035217121D01*
X0074597670Y0035197670D01*
X0074658539Y0035170582D01*
X0074658539Y0034997184D01*
X0074598793Y0035032672D01*
X0074539945Y0035057199D01*
X0074480020Y0035071484D01*
X0074417039Y0035076246D01*
X0074313674Y0035057693D01*
X0074235016Y0035002035D01*
X0074185422Y0034913943D01*
X0074168891Y0034797730D01*
X0074185422Y0034681877D01*
X0074235016Y0034593785D01*
X0074313674Y0034538262D01*
X0074417039Y0034519754D01*
X0074480020Y0034524516D01*
X0074539945Y0034538801D01*
X0074598793Y0034563463D01*
X0074658539Y0034598996D01*
X0074658539Y0034425418D01*
X0074658539Y0034425418D01*
G37*
G36*
X0068724359Y0033220602D02*
X0068724359Y0032820242D01*
X0068784969Y0032820242D01*
X0068876375Y0032833109D01*
X0068943312Y0032871711D01*
X0068984445Y0032934816D01*
X0068998156Y0033021195D01*
X0068984516Y0033107012D01*
X0068943594Y0033169555D01*
X0068876727Y0033207840D01*
X0068784969Y0033220602D01*
X0068724359Y0033220602D01*
X0068724359Y0033220602D01*
G37*
G36*
X0068555188Y0033348570D02*
X0068733500Y0033348570D01*
X0068863895Y0033343227D01*
X0068956109Y0033327195D01*
X0069024031Y0033298508D01*
X0069081547Y0033254914D01*
X0069121730Y0033207066D01*
X0069150031Y0033152398D01*
X0069166906Y0033090629D01*
X0069172531Y0033021195D01*
X0069166906Y0032950848D01*
X0069150031Y0032888586D01*
X0069121730Y0032833848D01*
X0069081547Y0032786070D01*
X0069023539Y0032742441D01*
X0068954984Y0032713648D01*
X0068862699Y0032697723D01*
X0068733500Y0032692414D01*
X0068555188Y0032692414D01*
X0068555188Y0033348570D01*
X0068555188Y0033348570D01*
G37*
G36*
X0069325109Y0032809273D02*
X0069474594Y0032809273D01*
X0069474594Y0033233398D01*
X0069321172Y0033201758D01*
X0069321172Y0033316930D01*
X0069473609Y0033348570D01*
X0069634484Y0033348570D01*
X0069634484Y0032809273D01*
X0069783969Y0032809273D01*
X0069783969Y0032692414D01*
X0069325109Y0032692414D01*
X0069325109Y0032809273D01*
X0069325109Y0032809273D01*
G37*
G36*
X0070241844Y0033348570D02*
X0070411016Y0033348570D01*
X0070411016Y0032955242D01*
X0070417660Y0032885527D01*
X0070437594Y0032838945D01*
X0070472574Y0032812789D01*
X0070524359Y0032804070D01*
X0070576461Y0032812789D01*
X0070611547Y0032838945D01*
X0070631480Y0032885527D01*
X0070638125Y0032955242D01*
X0070638125Y0033348570D01*
X0070807297Y0033348570D01*
X0070807297Y0032955242D01*
X0070789824Y0032833672D01*
X0070737406Y0032747680D01*
X0070649270Y0032696633D01*
X0070524359Y0032679617D01*
X0070399730Y0032696633D01*
X0070311594Y0032747680D01*
X0070259281Y0032833672D01*
X0070241844Y0032955242D01*
X0070241844Y0033348570D01*
X0070241844Y0033348570D01*
G37*
G36*
X0071429141Y0033327898D02*
X0071429141Y0033188961D01*
X0071375773Y0033210160D01*
X0071323672Y0033225383D01*
X0071273750Y0033234664D01*
X0071226641Y0033237758D01*
X0071173906Y0033233574D01*
X0071136922Y0033221023D01*
X0071115195Y0033199789D01*
X0071107953Y0033169273D01*
X0071112840Y0033145754D01*
X0071127500Y0033128070D01*
X0071155027Y0033114465D01*
X0071198516Y0033102898D01*
X0071270516Y0033088414D01*
X0071364102Y0033060641D01*
X0071426047Y0033021477D01*
X0071460746Y0032967266D01*
X0071472313Y0032894070D01*
X0071456211Y0032799500D01*
X0071407906Y0032732633D01*
X0071326520Y0032692871D01*
X0071211172Y0032679617D01*
X0071148734Y0032682605D01*
X0071086016Y0032691570D01*
X0071023156Y0032706266D01*
X0070960297Y0032726727D01*
X0070960297Y0032869461D01*
X0071022102Y0032840211D01*
X0071081797Y0032819117D01*
X0071139418Y0032806461D01*
X0071195000Y0032802242D01*
X0071243902Y0032806848D01*
X0071279797Y0032820664D01*
X0071301840Y0032843164D01*
X0071309188Y0032873539D01*
X0071304195Y0032900715D01*
X0071289219Y0032920930D01*
X0071259301Y0032936785D01*
X0071209484Y0032950883D01*
X0071143953Y0032965367D01*
X0071058734Y0032992719D01*
X0070999953Y0033032586D01*
X0070965887Y0033086727D01*
X0070954531Y0033156898D01*
X0070970352Y0033243594D01*
X0071017812Y0033307648D01*
X0071094945Y0033347199D01*
X0071199781Y0033360383D01*
X0071254660Y0033358344D01*
X0071311016Y0033352227D01*
X0071369094Y0033342066D01*
X0071429141Y0033327898D01*
X0071429141Y0033327898D01*
G37*
G36*
X0071883500Y0033094461D02*
X0071918691Y0033098855D01*
X0071944109Y0033112039D01*
X0071959613Y0033133801D01*
X0071964781Y0033163930D01*
X0071959613Y0033193777D01*
X0071944109Y0033215539D01*
X0071918691Y0033228934D01*
X0071883500Y0033233398D01*
X0071789984Y0033233398D01*
X0071789984Y0033094461D01*
X0071883500Y0033094461D01*
X0071883500Y0033094461D01*
G37*
G36*
X0071889266Y0032807586D02*
X0071933879Y0032812965D01*
X0071965906Y0032829102D01*
X0071985207Y0032856102D01*
X0071991641Y0032894070D01*
X0071985277Y0032931441D01*
X0071966188Y0032958055D01*
X0071934230Y0032974086D01*
X0071889266Y0032979430D01*
X0071789984Y0032979430D01*
X0071789984Y0032807586D01*
X0071889266Y0032807586D01*
X0071889266Y0032807586D01*
G37*
G36*
X0072046625Y0033043555D02*
X0072094895Y0033020984D01*
X0072130859Y0032985055D01*
X0072153324Y0032937629D01*
X0072160812Y0032880570D01*
X0072144781Y0032797707D01*
X0072096688Y0032738961D01*
X0072015828Y0032704051D01*
X0071901500Y0032692414D01*
X0071620813Y0032692414D01*
X0071620813Y0033348570D01*
X0071874781Y0033348570D01*
X0071992625Y0033338234D01*
X0072072781Y0033307227D01*
X0072118766Y0033253473D01*
X0072134094Y0033174898D01*
X0072128469Y0033130637D01*
X0072111594Y0033093477D01*
X0072084172Y0033064191D01*
X0072046625Y0033043555D01*
X0072046625Y0033043555D01*
G37*
G36*
X0068764367Y0024578203D02*
X0068764367Y0024177844D01*
X0068824977Y0024177844D01*
X0068916383Y0024190711D01*
X0068983320Y0024229312D01*
X0069024453Y0024292418D01*
X0069038164Y0024378797D01*
X0069024523Y0024464613D01*
X0068983602Y0024527156D01*
X0068916734Y0024565441D01*
X0068824977Y0024578203D01*
X0068764367Y0024578203D01*
X0068764367Y0024578203D01*
G37*
G36*
X0068595195Y0024706172D02*
X0068773508Y0024706172D01*
X0068903902Y0024700828D01*
X0068996117Y0024684797D01*
X0069064039Y0024656109D01*
X0069121555Y0024612516D01*
X0069161738Y0024564668D01*
X0069190039Y0024510000D01*
X0069206914Y0024448230D01*
X0069212539Y0024378797D01*
X0069206914Y0024308449D01*
X0069190039Y0024246188D01*
X0069161738Y0024191449D01*
X0069121555Y0024143672D01*
X0069063547Y0024100043D01*
X0068994992Y0024071250D01*
X0068902707Y0024055324D01*
X0068773508Y0024050016D01*
X0068595195Y0024050016D01*
X0068595195Y0024706172D01*
X0068595195Y0024706172D01*
G37*
G36*
X0069518961Y0024174328D02*
X0069807664Y0024174328D01*
X0069807664Y0024050016D01*
X0069330805Y0024050016D01*
X0069330805Y0024174328D01*
X0069570289Y0024385828D01*
X0069598273Y0024414480D01*
X0069617820Y0024442500D01*
X0069629316Y0024470730D01*
X0069633148Y0024500016D01*
X0069625414Y0024541641D01*
X0069602211Y0024574266D01*
X0069566141Y0024595359D01*
X0069519805Y0024602391D01*
X0069478391Y0024598172D01*
X0069433180Y0024585516D01*
X0069384559Y0024564492D01*
X0069332633Y0024535172D01*
X0069332633Y0024679312D01*
X0069389410Y0024695906D01*
X0069445555Y0024708000D01*
X0069500820Y0024715488D01*
X0069554961Y0024717984D01*
X0069659656Y0024705012D01*
X0069738055Y0024666094D01*
X0069786992Y0024604078D01*
X0069803305Y0024521531D01*
X0069796379Y0024469746D01*
X0069775602Y0024421547D01*
X0069732641Y0024367371D01*
X0069659164Y0024297375D01*
X0069518961Y0024174328D01*
X0069518961Y0024174328D01*
G37*
G36*
X0070544539Y0024452062D02*
X0070579730Y0024456457D01*
X0070605148Y0024469641D01*
X0070620652Y0024491402D01*
X0070625820Y0024521531D01*
X0070620652Y0024551379D01*
X0070605148Y0024573141D01*
X0070579730Y0024586535D01*
X0070544539Y0024591000D01*
X0070451023Y0024591000D01*
X0070451023Y0024452062D01*
X0070544539Y0024452062D01*
X0070544539Y0024452062D01*
G37*
G36*
X0070550305Y0024165188D02*
X0070594918Y0024170566D01*
X0070626945Y0024186703D01*
X0070646246Y0024213703D01*
X0070652680Y0024251672D01*
X0070646316Y0024289043D01*
X0070627227Y0024315656D01*
X0070595270Y0024331688D01*
X0070550305Y0024337031D01*
X0070451023Y0024337031D01*
X0070451023Y0024165188D01*
X0070550305Y0024165188D01*
X0070550305Y0024165188D01*
G37*
G36*
X0070707664Y0024401156D02*
X0070755934Y0024378586D01*
X0070791898Y0024342656D01*
X0070814363Y0024295230D01*
X0070821852Y0024238172D01*
X0070805820Y0024155309D01*
X0070757727Y0024096562D01*
X0070676867Y0024061652D01*
X0070562539Y0024050016D01*
X0070281852Y0024050016D01*
X0070281852Y0024706172D01*
X0070535820Y0024706172D01*
X0070653664Y0024695836D01*
X0070733820Y0024664828D01*
X0070779805Y0024611074D01*
X0070795133Y0024532500D01*
X0070789508Y0024488238D01*
X0070772633Y0024451078D01*
X0070745211Y0024421793D01*
X0070707664Y0024401156D01*
X0070707664Y0024401156D01*
G37*
G36*
X0071365930Y0024169547D02*
X0071101414Y0024169547D01*
X0071059648Y0024050016D01*
X0070889492Y0024050016D01*
X0071132492Y0024706172D01*
X0071334289Y0024706172D01*
X0071577289Y0024050016D01*
X0071407273Y0024050016D01*
X0071365930Y0024169547D01*
X0071365930Y0024169547D01*
G37*
G36*
X0071143602Y0024291328D02*
X0071323320Y0024291328D01*
X0071233602Y0024552328D01*
X0071143602Y0024291328D01*
X0071143602Y0024291328D01*
G37*
G36*
X0071516117Y0024706172D02*
X0072120805Y0024706172D01*
X0072120805Y0024578203D01*
X0071903258Y0024578203D01*
X0071903258Y0024050016D01*
X0071734086Y0024050016D01*
X0071734086Y0024578203D01*
X0071516117Y0024578203D01*
X0071516117Y0024706172D01*
X0071516117Y0024706172D01*
G37*
G36*
X0075708641Y0022581855D02*
X0075636166Y0022566789D01*
X0075582023Y0022521590D01*
X0075548291Y0022449004D01*
X0075537047Y0022351777D01*
X0075548291Y0022254959D01*
X0075582023Y0022182410D01*
X0075636166Y0022137211D01*
X0075708641Y0022122145D01*
X0075781449Y0022137211D01*
X0075835703Y0022182410D01*
X0075869436Y0022254959D01*
X0075880680Y0022351777D01*
X0075869436Y0022449004D01*
X0075835703Y0022521590D01*
X0075781449Y0022566789D01*
X0075708641Y0022581855D01*
X0075708641Y0022581855D01*
G37*
G36*
X0075708641Y0022711293D02*
X0075857523Y0022687395D01*
X0075970188Y0022615699D01*
X0076041215Y0022501996D01*
X0076064891Y0022351777D01*
X0076041215Y0022201967D01*
X0075970188Y0022088301D01*
X0075857523Y0022016605D01*
X0075708641Y0021992707D01*
X0075560018Y0022016605D01*
X0075447242Y0022088301D01*
X0075376104Y0022201967D01*
X0075352391Y0022351777D01*
X0075376104Y0022501996D01*
X0075447242Y0022615699D01*
X0075560018Y0022687395D01*
X0075708641Y0022711293D01*
X0075708641Y0022711293D01*
G37*
G36*
X0076199969Y0022698824D02*
X0076681797Y0022698824D01*
X0076681797Y0022563746D01*
X0076378539Y0022563746D01*
X0076378539Y0022434902D01*
X0076663836Y0022434902D01*
X0076663836Y0022299824D01*
X0076378539Y0022299824D01*
X0076378539Y0022006215D01*
X0076199969Y0022006215D01*
X0076199969Y0022698824D01*
X0076199969Y0022698824D01*
G37*
G36*
X0076848938Y0022698824D02*
X0077330766Y0022698824D01*
X0077330766Y0022563746D01*
X0077027508Y0022563746D01*
X0077027508Y0022434902D01*
X0077312805Y0022434902D01*
X0077312805Y0022299824D01*
X0077027508Y0022299824D01*
X0077027508Y0022006215D01*
X0076848938Y0022006215D01*
X0076848938Y0022698824D01*
X0076848938Y0022698824D01*
G37*
G36*
X0078475664Y0022581855D02*
X0078403189Y0022566789D01*
X0078349047Y0022521590D01*
X0078315314Y0022449004D01*
X0078304070Y0022351777D01*
X0078315314Y0022254959D01*
X0078349047Y0022182410D01*
X0078403189Y0022137211D01*
X0078475664Y0022122145D01*
X0078548473Y0022137211D01*
X0078602727Y0022182410D01*
X0078636459Y0022254959D01*
X0078647703Y0022351777D01*
X0078636459Y0022449004D01*
X0078602727Y0022521590D01*
X0078548473Y0022566789D01*
X0078475664Y0022581855D01*
X0078475664Y0022581855D01*
G37*
G36*
X0078475664Y0022711293D02*
X0078624547Y0022687395D01*
X0078737211Y0022615699D01*
X0078808238Y0022501996D01*
X0078831914Y0022351777D01*
X0078808238Y0022201967D01*
X0078737211Y0022088301D01*
X0078624547Y0022016605D01*
X0078475664Y0021992707D01*
X0078327041Y0022016605D01*
X0078214266Y0022088301D01*
X0078143127Y0022201967D01*
X0078119414Y0022351777D01*
X0078143127Y0022501996D01*
X0078214266Y0022615699D01*
X0078327041Y0022687395D01*
X0078475664Y0022711293D01*
X0078475664Y0022711293D01*
G37*
G36*
X0078966992Y0022698824D02*
X0079166344Y0022698824D01*
X0079418242Y0022223824D01*
X0079418242Y0022698824D01*
X0079587609Y0022698824D01*
X0079587609Y0022006215D01*
X0079388109Y0022006215D01*
X0079136211Y0022481215D01*
X0079136211Y0022006215D01*
X0078966992Y0022006215D01*
X0078966992Y0022698824D01*
X0078966992Y0022698824D01*
G37*
G36*
X0067481563Y0011258188D02*
X0067520664Y0011263070D01*
X0067548906Y0011277719D01*
X0067566133Y0011301898D01*
X0067571875Y0011335375D01*
X0067566133Y0011368539D01*
X0067548906Y0011392719D01*
X0067520664Y0011407602D01*
X0067481563Y0011412562D01*
X0067377656Y0011412562D01*
X0067377656Y0011258188D01*
X0067481563Y0011258188D01*
X0067481563Y0011258188D01*
G37*
G36*
X0067487969Y0010939438D02*
X0067537539Y0010945414D01*
X0067573125Y0010963344D01*
X0067594570Y0010993344D01*
X0067601719Y0011035531D01*
X0067594648Y0011077055D01*
X0067573438Y0011106625D01*
X0067537930Y0011124438D01*
X0067487969Y0011130375D01*
X0067377656Y0011130375D01*
X0067377656Y0010939438D01*
X0067487969Y0010939438D01*
X0067487969Y0010939438D01*
G37*
G36*
X0067662812Y0011201625D02*
X0067716445Y0011176547D01*
X0067756406Y0011136625D01*
X0067781367Y0011083930D01*
X0067789688Y0011020531D01*
X0067771875Y0010928461D01*
X0067718438Y0010863187D01*
X0067628594Y0010824398D01*
X0067501562Y0010811469D01*
X0067189688Y0010811469D01*
X0067189688Y0011540531D01*
X0067471875Y0011540531D01*
X0067602812Y0011529047D01*
X0067691875Y0011494594D01*
X0067742969Y0011434867D01*
X0067760000Y0011347562D01*
X0067753750Y0011298383D01*
X0067735000Y0011257094D01*
X0067704531Y0011224555D01*
X0067662812Y0011201625D01*
X0067662812Y0011201625D01*
G37*
G36*
X0068394219Y0010944281D02*
X0068100312Y0010944281D01*
X0068053906Y0010811469D01*
X0067864844Y0010811469D01*
X0068134844Y0011540531D01*
X0068359062Y0011540531D01*
X0068629062Y0010811469D01*
X0068440156Y0010811469D01*
X0068394219Y0010944281D01*
X0068394219Y0010944281D01*
G37*
G36*
X0068147188Y0011079594D02*
X0068346875Y0011079594D01*
X0068247188Y0011369594D01*
X0068147188Y0011079594D01*
X0068147188Y0011079594D01*
G37*
G36*
X0068561094Y0011540531D02*
X0069232969Y0011540531D01*
X0069232969Y0011398344D01*
X0068991250Y0011398344D01*
X0068991250Y0010811469D01*
X0068803281Y0010811469D01*
X0068803281Y0011398344D01*
X0068561094Y0011398344D01*
X0068561094Y0011540531D01*
X0068561094Y0011540531D01*
G37*
G36*
X0069715469Y0011438500D02*
X0069715469Y0011182562D01*
X0069970312Y0011182562D01*
X0069970312Y0011067406D01*
X0069715469Y0011067406D01*
X0069715469Y0010811469D01*
X0069599219Y0010811469D01*
X0069599219Y0011067406D01*
X0069344375Y0011067406D01*
X0069344375Y0011182562D01*
X0069599219Y0011182562D01*
X0069599219Y0011438500D01*
X0069715469Y0011438500D01*
X0069715469Y0011438500D01*
G37*
G36*
X0075360625Y0011258188D02*
X0075399727Y0011263070D01*
X0075427969Y0011277719D01*
X0075445195Y0011301898D01*
X0075450938Y0011335375D01*
X0075445195Y0011368539D01*
X0075427969Y0011392719D01*
X0075399727Y0011407602D01*
X0075360625Y0011412562D01*
X0075256719Y0011412562D01*
X0075256719Y0011258188D01*
X0075360625Y0011258188D01*
X0075360625Y0011258188D01*
G37*
G36*
X0075367031Y0010939438D02*
X0075416602Y0010945414D01*
X0075452188Y0010963344D01*
X0075473633Y0010993344D01*
X0075480781Y0011035531D01*
X0075473711Y0011077055D01*
X0075452500Y0011106625D01*
X0075416992Y0011124438D01*
X0075367031Y0011130375D01*
X0075256719Y0011130375D01*
X0075256719Y0010939438D01*
X0075367031Y0010939438D01*
X0075367031Y0010939438D01*
G37*
G36*
X0075541875Y0011201625D02*
X0075595508Y0011176547D01*
X0075635469Y0011136625D01*
X0075660430Y0011083930D01*
X0075668750Y0011020531D01*
X0075650938Y0010928461D01*
X0075597500Y0010863187D01*
X0075507656Y0010824398D01*
X0075380625Y0010811469D01*
X0075068750Y0010811469D01*
X0075068750Y0011540531D01*
X0075350938Y0011540531D01*
X0075481875Y0011529047D01*
X0075570938Y0011494594D01*
X0075622031Y0011434867D01*
X0075639063Y0011347562D01*
X0075632812Y0011298383D01*
X0075614062Y0011257094D01*
X0075583594Y0011224555D01*
X0075541875Y0011201625D01*
X0075541875Y0011201625D01*
G37*
G36*
X0076273281Y0010944281D02*
X0075979375Y0010944281D01*
X0075932969Y0010811469D01*
X0075743906Y0010811469D01*
X0076013906Y0011540531D01*
X0076238125Y0011540531D01*
X0076508125Y0010811469D01*
X0076319219Y0010811469D01*
X0076273281Y0010944281D01*
X0076273281Y0010944281D01*
G37*
G36*
X0076026250Y0011079594D02*
X0076225938Y0011079594D01*
X0076126250Y0011369594D01*
X0076026250Y0011079594D01*
X0076026250Y0011079594D01*
G37*
G36*
X0076440156Y0011540531D02*
X0077112031Y0011540531D01*
X0077112031Y0011398344D01*
X0076870313Y0011398344D01*
X0076870313Y0010811469D01*
X0076682344Y0010811469D01*
X0076682344Y0011398344D01*
X0076440156Y0011398344D01*
X0076440156Y0011540531D01*
X0076440156Y0011540531D01*
G37*
G36*
X0077024688Y0011170375D02*
X0077331250Y0011170375D01*
X0077331250Y0011028344D01*
X0077024688Y0011028344D01*
X0077024688Y0011170375D01*
X0077024688Y0011170375D01*
G37*
G36*
X0041933078Y0047541273D02*
X0042082562Y0047541273D01*
X0042082562Y0047965398D01*
X0041929141Y0047933758D01*
X0041929141Y0048048930D01*
X0042081578Y0048080570D01*
X0042242453Y0048080570D01*
X0042242453Y0047541273D01*
X0042391938Y0047541273D01*
X0042391938Y0047424414D01*
X0041933078Y0047424414D01*
X0041933078Y0047541273D01*
X0041933078Y0047541273D01*
G37*
G36*
X0042767125Y0047718039D02*
X0042725184Y0047711535D01*
X0042694141Y0047692023D01*
X0042675051Y0047660523D01*
X0042668688Y0047617773D01*
X0042675051Y0047575059D01*
X0042694141Y0047543664D01*
X0042725184Y0047524469D01*
X0042767125Y0047518070D01*
X0042808715Y0047524469D01*
X0042839266Y0047543664D01*
X0042858039Y0047575059D01*
X0042864297Y0047617773D01*
X0042858039Y0047660805D01*
X0042839266Y0047692305D01*
X0042808715Y0047711605D01*
X0042767125Y0047718039D01*
X0042767125Y0047718039D01*
G37*
G36*
X0042643656Y0047773727D02*
X0042591238Y0047796648D01*
X0042553516Y0047829133D01*
X0042530840Y0047871145D01*
X0042523281Y0047922367D01*
X0042538750Y0047995457D01*
X0042585156Y0048048789D01*
X0042661656Y0048081484D01*
X0042767125Y0048092383D01*
X0042871926Y0048081555D01*
X0042948109Y0048049070D01*
X0042994621Y0047995738D01*
X0043010125Y0047922367D01*
X0043002496Y0047871145D01*
X0042979609Y0047829133D01*
X0042941781Y0047796648D01*
X0042889328Y0047773727D01*
X0042947934Y0047749539D01*
X0042990156Y0047713820D01*
X0043015680Y0047666887D01*
X0043024188Y0047609055D01*
X0043007980Y0047523379D01*
X0042959359Y0047461539D01*
X0042878887Y0047424098D01*
X0042767125Y0047411617D01*
X0042654941Y0047424098D01*
X0042574047Y0047461539D01*
X0042525109Y0047523379D01*
X0042508797Y0047609055D01*
X0042517305Y0047666887D01*
X0042542828Y0047713820D01*
X0042585051Y0047749539D01*
X0042643656Y0047773727D01*
X0042643656Y0047773727D01*
G37*
G36*
X0042683172Y0047905211D02*
X0042688621Y0047870617D01*
X0042704969Y0047845023D01*
X0042731406Y0047829203D01*
X0042767125Y0047823930D01*
X0042802141Y0047829203D01*
X0042828156Y0047845023D01*
X0042844398Y0047870617D01*
X0042849812Y0047905211D01*
X0042844398Y0047939734D01*
X0042828156Y0047965117D01*
X0042802141Y0047980832D01*
X0042767125Y0047986070D01*
X0042731406Y0047980797D01*
X0042704969Y0047964977D01*
X0042688621Y0047939488D01*
X0042683172Y0047905211D01*
X0042683172Y0047905211D01*
G37*
G36*
X0043494016Y0047753195D02*
X0043488250Y0047858031D01*
X0043470953Y0047926445D01*
X0043440016Y0047964203D01*
X0043393328Y0047976789D01*
X0043346676Y0047964203D01*
X0043315562Y0047926445D01*
X0043298055Y0047858031D01*
X0043292219Y0047753195D01*
X0043298055Y0047647094D01*
X0043315562Y0047577695D01*
X0043346676Y0047539516D01*
X0043393328Y0047526789D01*
X0043439734Y0047539516D01*
X0043470672Y0047577695D01*
X0043488180Y0047647094D01*
X0043494016Y0047753195D01*
X0043494016Y0047753195D01*
G37*
G36*
X0043663188Y0047751789D02*
X0043645609Y0047607402D01*
X0043592875Y0047500211D01*
X0043507832Y0047433766D01*
X0043393328Y0047411617D01*
X0043278508Y0047433766D01*
X0043193359Y0047500211D01*
X0043140625Y0047607402D01*
X0043123047Y0047751789D01*
X0043140625Y0047896563D01*
X0043193359Y0048003789D01*
X0043278508Y0048070234D01*
X0043393328Y0048092383D01*
X0043507832Y0048070234D01*
X0043592875Y0048003789D01*
X0043645609Y0047896563D01*
X0043663188Y0047751789D01*
X0043663188Y0047751789D01*
G37*
G36*
X0043788906Y0048080570D02*
X0043958078Y0048080570D01*
X0043958078Y0047841086D01*
X0044201922Y0048080570D01*
X0044398375Y0048080570D01*
X0044082391Y0047769789D01*
X0044430859Y0047424414D01*
X0044219078Y0047424414D01*
X0043958078Y0047682883D01*
X0043958078Y0047424414D01*
X0043788906Y0047424414D01*
X0043788906Y0048080570D01*
X0043788906Y0048080570D01*
G37*
G36*
X0052781273Y0038038109D02*
X0052781273Y0038326812D01*
X0052905586Y0038326812D01*
X0052905586Y0037849953D01*
X0052781273Y0037849953D01*
X0052569773Y0038089437D01*
X0052541121Y0038117422D01*
X0052513102Y0038136969D01*
X0052484871Y0038148465D01*
X0052455586Y0038152297D01*
X0052413961Y0038144562D01*
X0052381336Y0038121359D01*
X0052360242Y0038085289D01*
X0052353211Y0038038953D01*
X0052357430Y0037997539D01*
X0052370086Y0037952328D01*
X0052391109Y0037903707D01*
X0052420430Y0037851781D01*
X0052276289Y0037851781D01*
X0052259695Y0037908559D01*
X0052247602Y0037964703D01*
X0052240113Y0038019969D01*
X0052237617Y0038074109D01*
X0052250590Y0038178805D01*
X0052289508Y0038257203D01*
X0052351523Y0038306141D01*
X0052434070Y0038322453D01*
X0052485855Y0038315527D01*
X0052534055Y0038294750D01*
X0052588230Y0038251789D01*
X0052658227Y0038178312D01*
X0052781273Y0038038109D01*
X0052781273Y0038038109D01*
G37*
G36*
X0052781273Y0038664312D02*
X0052781273Y0038953016D01*
X0052905586Y0038953016D01*
X0052905586Y0038476156D01*
X0052781273Y0038476156D01*
X0052569773Y0038715641D01*
X0052541121Y0038743625D01*
X0052513102Y0038763172D01*
X0052484871Y0038774668D01*
X0052455586Y0038778500D01*
X0052413961Y0038770766D01*
X0052381336Y0038747562D01*
X0052360242Y0038711492D01*
X0052353211Y0038665156D01*
X0052357430Y0038623742D01*
X0052370086Y0038578531D01*
X0052391109Y0038529910D01*
X0052420430Y0038477984D01*
X0052276289Y0038477984D01*
X0052259695Y0038534762D01*
X0052247602Y0038590906D01*
X0052240113Y0038646172D01*
X0052237617Y0038700312D01*
X0052250590Y0038805008D01*
X0052289508Y0038883406D01*
X0052351523Y0038932344D01*
X0052434070Y0038948656D01*
X0052485855Y0038941730D01*
X0052534055Y0038920953D01*
X0052588230Y0038877992D01*
X0052658227Y0038804516D01*
X0052781273Y0038664312D01*
X0052781273Y0038664312D01*
G37*
G36*
X0052576805Y0039445203D02*
X0052471969Y0039439438D01*
X0052403555Y0039422141D01*
X0052365797Y0039391203D01*
X0052353211Y0039344516D01*
X0052365797Y0039297863D01*
X0052403555Y0039266750D01*
X0052471969Y0039249242D01*
X0052576805Y0039243406D01*
X0052682906Y0039249242D01*
X0052752305Y0039266750D01*
X0052790484Y0039297863D01*
X0052803211Y0039344516D01*
X0052790484Y0039390922D01*
X0052752305Y0039421859D01*
X0052682906Y0039439367D01*
X0052576805Y0039445203D01*
X0052576805Y0039445203D01*
G37*
G36*
X0052578211Y0039614375D02*
X0052722598Y0039596797D01*
X0052829789Y0039544062D01*
X0052896234Y0039459020D01*
X0052918383Y0039344516D01*
X0052896234Y0039229695D01*
X0052829789Y0039144547D01*
X0052722598Y0039091812D01*
X0052578211Y0039074234D01*
X0052433438Y0039091812D01*
X0052326211Y0039144547D01*
X0052259766Y0039229695D01*
X0052237617Y0039344516D01*
X0052259766Y0039459020D01*
X0052326211Y0039544062D01*
X0052433438Y0039596797D01*
X0052578211Y0039614375D01*
X0052578211Y0039614375D01*
G37*
G36*
X0052249430Y0039740094D02*
X0052249430Y0039909266D01*
X0052488914Y0039909266D01*
X0052249430Y0040153109D01*
X0052249430Y0040349562D01*
X0052560211Y0040033578D01*
X0052905586Y0040382047D01*
X0052905586Y0040170266D01*
X0052647117Y0039909266D01*
X0052905586Y0039909266D01*
X0052905586Y0039740094D01*
X0052249430Y0039740094D01*
X0052249430Y0039740094D01*
G37*
G36*
X0042187078Y0030015273D02*
X0042336562Y0030015273D01*
X0042336562Y0030439398D01*
X0042183141Y0030407758D01*
X0042183141Y0030522930D01*
X0042335578Y0030554570D01*
X0042496453Y0030554570D01*
X0042496453Y0030015273D01*
X0042645938Y0030015273D01*
X0042645938Y0029898414D01*
X0042187078Y0029898414D01*
X0042187078Y0030015273D01*
X0042187078Y0030015273D01*
G37*
G36*
X0043121812Y0030227195D02*
X0043116047Y0030332031D01*
X0043098750Y0030400445D01*
X0043067812Y0030438203D01*
X0043021125Y0030450789D01*
X0042974473Y0030438203D01*
X0042943359Y0030400445D01*
X0042925852Y0030332031D01*
X0042920016Y0030227195D01*
X0042925852Y0030121094D01*
X0042943359Y0030051695D01*
X0042974473Y0030013516D01*
X0043021125Y0030000789D01*
X0043067531Y0030013516D01*
X0043098469Y0030051695D01*
X0043115977Y0030121094D01*
X0043121812Y0030227195D01*
X0043121812Y0030227195D01*
G37*
G36*
X0043290984Y0030225789D02*
X0043273406Y0030081402D01*
X0043220672Y0029974211D01*
X0043135629Y0029907766D01*
X0043021125Y0029885617D01*
X0042906305Y0029907766D01*
X0042821156Y0029974211D01*
X0042768422Y0030081402D01*
X0042750844Y0030225789D01*
X0042768422Y0030370562D01*
X0042821156Y0030477789D01*
X0042906305Y0030544234D01*
X0043021125Y0030566383D01*
X0043135629Y0030544234D01*
X0043220672Y0030477789D01*
X0043273406Y0030370562D01*
X0043290984Y0030225789D01*
X0043290984Y0030225789D01*
G37*
G36*
X0043748016Y0030227195D02*
X0043742250Y0030332031D01*
X0043724953Y0030400445D01*
X0043694016Y0030438203D01*
X0043647328Y0030450789D01*
X0043600676Y0030438203D01*
X0043569562Y0030400445D01*
X0043552055Y0030332031D01*
X0043546219Y0030227195D01*
X0043552055Y0030121094D01*
X0043569562Y0030051695D01*
X0043600676Y0030013516D01*
X0043647328Y0030000789D01*
X0043693734Y0030013516D01*
X0043724672Y0030051695D01*
X0043742180Y0030121094D01*
X0043748016Y0030227195D01*
X0043748016Y0030227195D01*
G37*
G36*
X0043917188Y0030225789D02*
X0043899609Y0030081402D01*
X0043846875Y0029974211D01*
X0043761832Y0029907766D01*
X0043647328Y0029885617D01*
X0043532508Y0029907766D01*
X0043447359Y0029974211D01*
X0043394625Y0030081402D01*
X0043377047Y0030225789D01*
X0043394625Y0030370562D01*
X0043447359Y0030477789D01*
X0043532508Y0030544234D01*
X0043647328Y0030566383D01*
X0043761832Y0030544234D01*
X0043846875Y0030477789D01*
X0043899609Y0030370562D01*
X0043917188Y0030225789D01*
X0043917188Y0030225789D01*
G37*
G36*
X0044042906Y0030554570D02*
X0044212078Y0030554570D01*
X0044212078Y0030315086D01*
X0044455922Y0030554570D01*
X0044652375Y0030554570D01*
X0044336391Y0030243789D01*
X0044684859Y0029898414D01*
X0044473078Y0029898414D01*
X0044212078Y0030156883D01*
X0044212078Y0029898414D01*
X0044042906Y0029898414D01*
X0044042906Y0030554570D01*
X0044042906Y0030554570D01*
G37*
G36*
X0040679219Y0002343535D02*
X0040820195Y0002343535D01*
X0040820195Y0001849824D01*
X0040806309Y0001760557D01*
X0040764648Y0001697129D01*
X0040694951Y0001659248D01*
X0040596719Y0001646621D01*
X0040568242Y0001646621D01*
X0040568242Y0001753145D01*
X0040590156Y0001753145D01*
X0040628740Y0001759297D01*
X0040656602Y0001777754D01*
X0040673564Y0001808018D01*
X0040679219Y0001849824D01*
X0040679219Y0002343535D01*
X0040679219Y0002343535D01*
G37*
G36*
X0040958242Y0002343535D02*
X0041099219Y0002343535D01*
X0041099219Y0001903262D01*
X0041346719Y0001903262D01*
X0041346719Y0001796738D01*
X0040958242Y0001796738D01*
X0040958242Y0002343535D01*
X0040958242Y0002343535D01*
G37*
G36*
X0041869727Y0001826738D02*
X0041830029Y0001809072D01*
X0041788750Y0001796387D01*
X0041745742Y0001788652D01*
X0041700859Y0001786074D01*
X0041578428Y0001805176D01*
X0041484414Y0001862480D01*
X0041424561Y0001952451D01*
X0041404609Y0002069551D01*
X0041424561Y0002186973D01*
X0041484414Y0002276973D01*
X0041578428Y0002334277D01*
X0041700859Y0002353379D01*
X0041745742Y0002350801D01*
X0041788750Y0002343066D01*
X0041830029Y0002330381D01*
X0041869727Y0002312715D01*
X0041869727Y0002199629D01*
X0041830762Y0002222773D01*
X0041792383Y0002238770D01*
X0041753301Y0002248086D01*
X0041712227Y0002251191D01*
X0041644814Y0002239092D01*
X0041593516Y0002202793D01*
X0041561172Y0002145342D01*
X0041550391Y0002069551D01*
X0041561172Y0001993994D01*
X0041593516Y0001936543D01*
X0041644814Y0001900332D01*
X0041712227Y0001888262D01*
X0041753301Y0001891367D01*
X0041792383Y0001900684D01*
X0041830762Y0001916768D01*
X0041869727Y0001939941D01*
X0041869727Y0001826738D01*
X0041869727Y0001826738D01*
G37*
G36*
X0041986562Y0002343535D02*
X0042127539Y0002343535D01*
X0042127539Y0001849824D01*
X0042113652Y0001760557D01*
X0042071992Y0001697129D01*
X0042002295Y0001659248D01*
X0041904062Y0001646621D01*
X0041875586Y0001646621D01*
X0041875586Y0001753145D01*
X0041897500Y0001753145D01*
X0041936084Y0001759297D01*
X0041963945Y0001777754D01*
X0041980908Y0001808018D01*
X0041986562Y0001849824D01*
X0041986562Y0002343535D01*
X0041986562Y0002343535D01*
G37*
G36*
X0042265586Y0002343535D02*
X0042406562Y0002343535D01*
X0042406562Y0001903262D01*
X0042654062Y0001903262D01*
X0042654062Y0001796738D01*
X0042265586Y0001796738D01*
X0042265586Y0002343535D01*
X0042265586Y0002343535D01*
G37*
G36*
X0043177070Y0001826738D02*
X0043137373Y0001809072D01*
X0043096094Y0001796387D01*
X0043053086Y0001788652D01*
X0043008203Y0001786074D01*
X0042885771Y0001805176D01*
X0042791758Y0001862480D01*
X0042731904Y0001952451D01*
X0042711953Y0002069551D01*
X0042731904Y0002186973D01*
X0042791758Y0002276973D01*
X0042885771Y0002334277D01*
X0043008203Y0002353379D01*
X0043053086Y0002350801D01*
X0043096094Y0002343066D01*
X0043137373Y0002330381D01*
X0043177070Y0002312715D01*
X0043177070Y0002199629D01*
X0043138105Y0002222773D01*
X0043099727Y0002238770D01*
X0043060645Y0002248086D01*
X0043019570Y0002251191D01*
X0042952158Y0002239092D01*
X0042900859Y0002202793D01*
X0042868516Y0002145342D01*
X0042857734Y0002069551D01*
X0042868516Y0001993994D01*
X0042900859Y0001936543D01*
X0042952158Y0001900332D01*
X0043019570Y0001888262D01*
X0043060645Y0001891367D01*
X0043099727Y0001900684D01*
X0043138105Y0001916768D01*
X0043177070Y0001939941D01*
X0043177070Y0001826738D01*
X0043177070Y0001826738D01*
G37*
G36*
X0043293906Y0002343535D02*
X0043434883Y0002343535D01*
X0043434883Y0001849824D01*
X0043420996Y0001760557D01*
X0043379336Y0001697129D01*
X0043309639Y0001659248D01*
X0043211406Y0001646621D01*
X0043182930Y0001646621D01*
X0043182930Y0001753145D01*
X0043204844Y0001753145D01*
X0043243428Y0001759297D01*
X0043271289Y0001777754D01*
X0043288252Y0001808018D01*
X0043293906Y0001849824D01*
X0043293906Y0002343535D01*
X0043293906Y0002343535D01*
G37*
G36*
X0043572930Y0002343535D02*
X0043713906Y0002343535D01*
X0043713906Y0001903262D01*
X0043961406Y0001903262D01*
X0043961406Y0001796738D01*
X0043572930Y0001796738D01*
X0043572930Y0002343535D01*
X0043572930Y0002343535D01*
G37*
G36*
X0044484414Y0001826738D02*
X0044444717Y0001809072D01*
X0044403437Y0001796387D01*
X0044360430Y0001788652D01*
X0044315547Y0001786074D01*
X0044193115Y0001805176D01*
X0044099102Y0001862480D01*
X0044039248Y0001952451D01*
X0044019297Y0002069551D01*
X0044039248Y0002186973D01*
X0044099102Y0002276973D01*
X0044193115Y0002334277D01*
X0044315547Y0002353379D01*
X0044360430Y0002350801D01*
X0044403437Y0002343066D01*
X0044444717Y0002330381D01*
X0044484414Y0002312715D01*
X0044484414Y0002199629D01*
X0044445449Y0002222773D01*
X0044407070Y0002238770D01*
X0044367988Y0002248086D01*
X0044326914Y0002251191D01*
X0044259502Y0002239092D01*
X0044208203Y0002202793D01*
X0044175859Y0002145342D01*
X0044165078Y0002069551D01*
X0044175859Y0001993994D01*
X0044208203Y0001936543D01*
X0044259502Y0001900332D01*
X0044326914Y0001888262D01*
X0044367988Y0001891367D01*
X0044407070Y0001900684D01*
X0044445449Y0001916768D01*
X0044484414Y0001939941D01*
X0044484414Y0001826738D01*
X0044484414Y0001826738D01*
G37*
G36*
X0044601250Y0002343535D02*
X0044742227Y0002343535D01*
X0044742227Y0001849824D01*
X0044728340Y0001760557D01*
X0044686680Y0001697129D01*
X0044616982Y0001659248D01*
X0044518750Y0001646621D01*
X0044490273Y0001646621D01*
X0044490273Y0001753145D01*
X0044512187Y0001753145D01*
X0044550771Y0001759297D01*
X0044578633Y0001777754D01*
X0044595596Y0001808018D01*
X0044601250Y0001849824D01*
X0044601250Y0002343535D01*
X0044601250Y0002343535D01*
G37*
G36*
X0044880273Y0002343535D02*
X0045021250Y0002343535D01*
X0045021250Y0001903262D01*
X0045268750Y0001903262D01*
X0045268750Y0001796738D01*
X0044880273Y0001796738D01*
X0044880273Y0002343535D01*
X0044880273Y0002343535D01*
G37*
G36*
X0045791758Y0001826738D02*
X0045752061Y0001809072D01*
X0045710781Y0001796387D01*
X0045667773Y0001788652D01*
X0045622891Y0001786074D01*
X0045500459Y0001805176D01*
X0045406445Y0001862480D01*
X0045346592Y0001952451D01*
X0045326641Y0002069551D01*
X0045346592Y0002186973D01*
X0045406445Y0002276973D01*
X0045500459Y0002334277D01*
X0045622891Y0002353379D01*
X0045667773Y0002350801D01*
X0045710781Y0002343066D01*
X0045752061Y0002330381D01*
X0045791758Y0002312715D01*
X0045791758Y0002199629D01*
X0045752793Y0002222773D01*
X0045714414Y0002238770D01*
X0045675332Y0002248086D01*
X0045634258Y0002251191D01*
X0045566846Y0002239092D01*
X0045515547Y0002202793D01*
X0045483203Y0002145342D01*
X0045472422Y0002069551D01*
X0045483203Y0001993994D01*
X0045515547Y0001936543D01*
X0045566846Y0001900332D01*
X0045634258Y0001888262D01*
X0045675332Y0001891367D01*
X0045714414Y0001900684D01*
X0045752793Y0001916768D01*
X0045791758Y0001939941D01*
X0045791758Y0001826738D01*
X0045791758Y0001826738D01*
G37*
D19*
X0039000000Y0005200000D02*
X0040500000Y0007000000D01*
X0042000000Y0005700000D01*
X0044000000Y0005700000D01*
X0045500000Y0007000000D01*
X0047000000Y0005200000D01*
M02*
